<?xml version="1.0" encoding="UTF-8"?>
<!DOCTYPE svg PUBLIC "-//W3C//DTD SVG 1.1//EN" "http://www.w3.org/Graphics/SVG/1.1/DTD/svg11.dtd">
<!-- Creator: CorelDRAW X7 -->
<svg xmlns="http://www.w3.org/2000/svg" xml:space="preserve" width="108.373mm" height="29.6332mm" version="1.1" style="shape-rendering:geometricPrecision; text-rendering:geometricPrecision; image-rendering:optimizeQuality; fill-rule:evenodd; clip-rule:evenodd"
viewBox="0 0 10837 2963"
 xmlns:xlink="http://www.w3.org/1999/xlink">
 <defs>
  <style type="text/css">
   <![CDATA[
    .fil0 {fill:#443936}
   ]]>
  </style>
 </defs>
 <g id="Layer_x0020_1">
  <metadata id="CorelCorpID_0Corel-Layer"/>
  <path class="fil0" d="M6670 2590c-23,12 -85,12 -119,6 26,-20 86,-16 119,-6zm-1937 -554l-3 -18 3 18zm422 213l16 -14 55 -34c19,-10 16,-3 24,-17 -38,15 -58,12 -79,51l-16 14c-26,-3 -26,8 -28,28 14,-9 17,-13 28,-28zm2112 -626l-1 -27 1 27zm1910 642l15 -11 -15 11zm-4000 30l21 -17 -21 17c-9,5 -17,9 -24,13 -28,18 -11,-1 -23,29 26,-15 31,-20 47,-42zm-4665 -886l0 0zm4453 422l3 -2c0,0 -2,1 -3,2zm3669 148l-3 3c0,0 0,0 0,0l3 -3zm-8163 43l17 -14c0,0 1,-2 2,-2l-19 16zm9483 -471c-1,1 -15,12 -2,1 4,-3 6,-4 2,-1zm-6441 980l1 1c13,-12 2,3 1,-2 -5,-21 0,-1 -2,1zm3952 -2043c-12,11 -4,5 1,1 9,-9 6,-7 -1,-1zm-2232 1649c-3,14 10,6 9,0 0,-22 22,0 -2,-2 -4,0 -6,-4 -7,2zm-4560 -731c-6,9 4,-2 4,-2 9,-17 -1,-3 -4,2zm7985 693c-2,12 4,3 6,0 7,-12 -5,-3 -6,0zm894 182l25 -22c-8,5 -4,2 -11,7 -14,12 -9,9 -14,15 -29,7 -42,45 -58,10 0,-1 -2,-5 -2,-8 0,-2 -1,-3 -1,-4 -1,2 -3,4 -4,5 -22,22 -15,3 -92,1 6,-14 12,-17 19,-37 92,-1 22,-7 58,-14 2,-1 14,-2 15,-2 56,-13 10,5 61,-1l1 -77c5,10 10,20 12,36l3 44 83 -5c-14,13 -7,7 -14,22 -38,17 -60,31 -71,56 -5,0 -11,0 -18,0 3,-23 -2,-5 8,-26zm-9112 -873c10,-4 23,-15 28,-28 -4,5 -8,9 -14,15 -15,17 -7,11 -14,13zm18 549c-6,-4 -4,-19 -13,4 5,-8 1,-1 13,-4l-11 30c39,-11 19,-7 25,-16 -7,-16 0,-7 -14,-14zm4580 90c0,0 9,9 6,-1 -2,-6 -5,-19 -6,1zm-4626 -105c16,-9 5,15 14,-14l31 -24c30,22 12,14 33,48 9,-26 -7,-8 44,-46l20 18c43,-24 19,7 69,6 -6,16 -8,19 -14,33 39,-16 9,-23 55,-34 -33,2 -14,-4 -20,-9 69,-11 -15,4 81,16 -2,-1 -5,-5 -6,-4 -3,5 -21,-30 -61,-24 -40,6 -59,5 -84,-15l-8 -8c-17,-11 -124,-27 -148,-27 2,1 4,1 5,3l26 38c-5,12 0,1 -13,5 -7,-18 2,-10 -15,-15l15 15c-7,21 6,-3 -10,24l-14 14c-8,4 -6,-1 -13,9 -7,8 -6,9 -10,20 -3,4 -10,-9 -10,13 0,27 -8,-5 8,16l2 -29c8,-5 5,1 13,-10 4,-5 7,-13 10,-19zm2279 414c-6,13 6,-2 7,-2 1,-11 -2,-10 -7,2zm5058 -651c-5,-17 3,-8 -14,-12l14 12 -47 343c1,36 -10,32 -22,58 -25,58 20,81 -31,137 16,81 35,8 8,145 -50,-3 -55,-18 -77,-44 -48,-58 -41,-61 -53,-76 -10,-12 -16,5 -49,-63 -24,-50 -27,-71 -17,-103 -45,-15 -3,-98 -35,-194 -6,-19 -6,-6 -7,-35 0,-18 2,-27 4,-46 5,-47 -24,-265 -25,-323 -1,-168 -8,-272 14,-444 13,-103 37,-318 62,-403l31 -83c10,-30 27,-49 38,-80 -49,-34 -40,-40 -46,-63 -79,-10 -83,24 -99,51 -12,22 -30,16 -57,41l-12 -157 -82 -34c-1,10 -5,5 16,10 -15,19 -14,59 -3,82 18,36 -2,15 26,26 1,-20 -20,-58 15,-74 16,27 16,86 17,124 2,53 -11,90 -7,137 5,52 10,75 4,131l15 396c-2,49 -1,95 -3,144l-6 822c-4,48 0,93 -2,143l-4 137c-1,21 7,41 8,66l0 52c7,44 33,-15 37,-26 1,-1 2,-3 2,-5 1,-1 2,-3 3,-5 1,-1 2,-3 3,-4 6,-8 3,-1 14,-17 14,-19 15,-33 52,-39 -7,17 -22,50 -36,67 26,-14 25,-31 40,-52l47 12c1,12 -1,12 5,21 1,1 3,3 4,4 1,1 3,2 4,3 1,2 3,3 4,4 1,1 4,2 5,3l-9 23c15,5 3,-2 11,7 28,31 -11,-14 7,10l21 0c-3,9 -2,15 -9,29 30,1 23,2 51,-4 10,-24 2,-32 26,-44 -8,18 0,0 -7,14l-8 15c18,7 4,-1 20,5l64 18 10 -2c25,2 12,4 35,-20 4,20 5,27 12,42 -101,23 -309,-9 -427,-8 -148,1 -284,-5 -430,0l-7 -54c1,-1 1,-3 1,-4 3,-18 13,-18 27,-23 29,-12 30,-16 55,-44 23,28 6,32 50,-48 14,-26 2,-10 18,-19 -2,52 -58,66 -7,89 20,-39 9,-28 3,-46 19,-11 29,-20 41,-44 -12,-4 1,3 -37,1l34 -72c16,-24 24,-47 39,-74 59,-103 79,-234 89,-351 5,-56 19,-145 20,-198 0,-41 -12,-53 -4,-93 8,-46 -4,-66 3,-110 10,-72 10,-123 4,-193 -10,-111 25,-166 -8,-347 0,-3 -5,-22 -6,-24 -11,-25 -5,-10 -13,-19 -7,10 -16,0 -4,51 11,54 24,104 25,162 1,86 -12,170 -10,256 2,107 -4,285 -23,390 -6,37 -10,83 -14,123 -48,-1 -42,-36 -42,-83 -1,-47 -9,-79 0,-113 -32,-27 -73,-37 -98,-66l-23 12c-30,-31 -87,-20 -128,-21 -48,0 -96,-6 -143,-5 -101,3 -205,0 -304,3 -10,15 -15,22 -26,42 -44,12 -81,11 -111,17l-5 -40c14,6 10,7 20,23 1,1 2,3 4,5 14,-52 34,-40 55,-68 -1,-1 -3,-5 -4,-4 -1,2 -4,-3 -5,-3 -25,-12 -29,-2 -44,-23 -1,2 -3,2 -3,5 -4,15 -15,12 -17,12 -27,4 -49,-7 -71,-18 -7,-3 -27,-14 -30,-15l-326 24c-43,2 -93,-7 -133,0 -49,9 26,3 -16,3 0,0 -17,-3 -18,-3l4 34c-76,46 -78,-22 -167,20 16,29 47,18 57,63 -111,19 -241,-6 -345,11 -47,8 -94,5 -150,16 -53,10 -103,20 -157,32 -3,26 -4,100 -11,119 -2,5 -10,16 -10,17 -24,63 13,141 8,205 -3,46 -5,85 -7,131 -37,-45 -12,-95 -13,-166 -1,-47 -12,-94 -5,-140 5,-27 2,-14 0,-44 -19,-7 -28,-5 -39,-21 -8,-12 -5,-13 -7,-22l-9 -28c-14,27 1,13 -23,34l-24 -10 -10 -58c-34,25 3,11 -34,26 -43,-10 -34,-19 -35,-70 -28,16 -25,32 -50,27 -8,-23 -8,-63 -20,-78 -21,17 -38,42 -27,70l-58 -12c32,19 73,27 108,34 0,0 -15,8 -16,8l-7 15 -96 -65c1,-1 2,-4 3,-6 -31,-5 -44,-13 -73,-20 41,6 60,25 102,9 2,-16 -12,-69 -19,-86 -22,11 -20,24 -30,52 -17,-9 -28,-14 -51,-24 -45,-21 -9,-19 -46,-37 2,-2 5,-6 6,-7l8 -9c1,-1 3,-4 4,-5l-19 -49c-18,17 -16,50 -34,69 -33,36 -34,19 -75,34l-27 -99c-15,27 4,48 -25,94 -12,19 -6,4 -11,20 -9,27 -7,38 -39,48l-21 -69c-46,33 -24,78 -70,99 -29,-11 -12,-15 -38,-38 -8,19 -24,58 -23,78 -9,-5 -23,-17 -26,-32 0,-3 -2,-4 -5,-6l-21 46c-16,-23 -6,-4 -10,-49 -14,12 -6,8 -25,9 -3,-42 -1,-21 17,-25 -6,-19 -9,-34 -20,-43 -7,8 -5,1 -11,14 -1,0 -4,9 -5,12 -3,14 -2,17 -2,30 -3,45 -15,85 -46,117 -1,-5 -3,-26 -3,-26 -4,-17 -3,-10 -8,-19 -48,16 -33,41 -52,81 -10,21 -45,22 -69,51 8,17 25,35 30,54 19,67 11,155 9,226l-33 21c6,49 29,48 12,90l-67 -5c-12,-40 -4,-26 -35,-46 -90,-62 -73,-44 -86,-148 -5,-37 -5,-40 -1,-77 3,-27 -5,-37 -8,-64 -5,-41 -7,-110 -6,-150 -77,-10 -69,1 -108,-3 -1,0 -4,0 -4,-2 -23,-58 32,-129 -52,-172l-13 -53c-24,16 -8,23 -32,41 -9,7 -34,18 -42,23 -9,71 -14,48 -3,123 7,43 -12,93 -10,134 1,24 10,36 14,60 6,41 -7,165 -4,219 -27,-21 -19,-24 -65,-19l-15 -48c-23,12 -12,-1 -21,30 -62,-1 -64,22 -93,22 -3,0 -86,-14 -97,-16 -29,-5 -22,-3 -36,-25 -36,-57 -19,-39 -29,-86 -5,-22 -7,-7 -16,-31 9,-33 14,-36 6,-71 -25,-12 -49,-14 -83,-14 8,34 5,23 29,38 15,10 19,26 32,39l-52 18 39 16c10,44 -9,19 22,53 21,23 12,24 33,41l3 26c-31,0 -14,-11 -38,4 25,34 41,33 89,33 51,0 53,27 85,13l-25 -15c-13,-5 -21,-5 -31,-8 35,-13 54,9 77,12 14,2 29,-5 38,-5 37,0 -14,10 11,1 19,-6 29,-18 51,-11 126,38 98,41 105,77l13 25c19,-1 38,1 38,-24 -1,-29 -1,-1 -20,-30l37 -22c9,-32 -3,-73 -5,-105 -1,-22 -6,-10 10,-25 20,24 18,71 17,107 34,-13 6,-28 48,-28 -3,22 2,14 -12,27 -22,22 -13,1 -26,26 19,-7 24,-15 37,-10 10,38 11,5 -17,41 43,-10 20,-10 52,-24l-24 -17c7,-23 8,-22 24,-38 -14,-12 -21,-6 -23,-14 -1,-2 -4,-2 -5,-3l4 -11 21 -6c-26,-16 -20,5 -21,6l-15 -1c9,-27 20,-33 46,-46 0,-5 3,-18 3,-19l-4 -17c-1,0 -1,-2 -2,-3l-5 -18 -47 39c9,26 7,-6 4,17 0,0 -7,14 -10,23l15 24c-12,22 -13,17 -29,22 14,-31 14,-4 10,-26 -12,-68 -54,-60 -64,-63 38,-25 13,-8 31,-43 8,15 6,17 16,31 4,-8 -2,-33 85,-78 0,-24 -7,-4 0,-42l-18 -5c6,-27 1,-1 6,-16 6,-16 3,9 5,-14l-11 -35 -41 27c-1,-2 -4,2 -6,3 14,-27 23,-44 56,-45 -9,-24 8,-11 -13,-23l48 12 -14 15c1,26 1,42 4,64l2 24c1,13 -3,3 1,15 11,-14 10,-62 16,-78 3,8 8,166 7,178 -9,69 20,160 23,188 20,5 55,12 72,27 27,22 5,-2 16,30 6,16 9,1 5,27 31,-4 40,-7 67,8 -30,9 -18,-1 -28,23l-12 -20c-22,11 -13,2 -19,29 -17,-17 -2,2 -13,-17 -1,-2 -5,-9 -5,-13 -1,-3 -2,-4 -3,-6 6,25 2,34 2,57 -2,64 7,54 20,56 -32,32 -5,7 -11,43 -5,31 -12,12 3,47 18,40 -3,-27 4,11 -36,1 -56,8 -86,6 -29,-1 -58,-1 -91,-1l-4 -16c-17,24 -1,16 -40,22 1,-3 3,-5 4,-7l6 -16c-37,18 -8,24 -31,12 0,-6 5,-28 12,-47 -10,5 -20,4 -29,29l-5 27c-71,1 -80,2 -94,-19 -16,31 -73,21 -95,4 -16,20 -1,15 -36,12l1 -188c-15,-32 -3,-8 -17,-13 -26,62 -7,61 1,111 4,25 -4,83 -24,95 -5,-6 -14,9 -15,-55 -1,-73 23,-141 -30,-151 -11,33 -7,55 0,74l5 10c1,3 3,11 3,13 5,30 1,59 -9,84 -8,19 3,7 -14,17 -4,-6 -8,3 -8,-32 0,-11 2,-21 3,-32 2,-23 3,-47 -1,-69 -7,-36 2,-82 -44,-76 -6,67 45,103 19,167 -9,-10 -3,18 -11,-20 -6,-30 10,-37 -9,-72l-9 132c-39,0 -67,5 -104,-2 -35,-5 -30,16 -69,2 9,-55 24,-8 42,-60l-34 19c-10,-15 -9,-10 -19,-27l10 -14 5 17c35,-6 38,-31 85,-39l-26 -20 -31 22c-10,7 -22,14 -33,20 -13,-26 -12,-22 -9,-55 38,16 63,-6 120,4 -18,44 1,27 5,52 1,6 -6,43 -7,58 13,-12 4,2 12,-15 20,-40 14,-69 -2,-107l-74 -13 51 -36c1,-3 3,-3 5,-5l-42 10c19,-42 22,-15 39,-44 -13,-10 1,-13 -28,-7 -71,14 35,-6 -48,66l-30 -43c29,5 12,19 34,2 0,-2 0,-5 0,-4l-10 -16c9,-7 16,-12 27,-21 -42,10 -24,20 -52,28 -13,-20 -24,-20 -46,-25 15,-28 -6,-1 28,-27 -40,2 -75,11 -116,7 -50,-5 -51,-29 -83,18l23 4c-23,32 -20,6 -30,38 28,15 44,-4 53,-28l-23 -10 5 -11c41,-2 96,-8 122,7l-77 18c-20,2 -9,-1 -10,18 30,17 9,-12 50,21l23 -11c-13,15 -25,24 -37,52 -7,17 -19,56 -1,72 0,34 4,18 -6,40 19,16 28,22 39,46l-65 -6c1,-20 4,-34 6,-52l-7 -42c-12,29 -3,135 -64,79 -26,47 -171,10 -222,19 -54,10 -75,4 -127,-1 -35,-2 -70,2 -113,1 -7,-52 -10,-110 -20,-160 -2,-10 -7,-28 -7,-38 -2,-28 11,-37 15,-70 7,-50 -1,-11 12,-29l8 90c27,-25 -8,-17 33,-113 -34,6 -23,10 -51,-3 -1,-32 -7,-13 8,-30 -8,-2 2,5 -11,-8l1 -45 44 0 -1 -144c-12,-5 -48,-14 -60,-22 -2,-32 -5,-17 16,-36 2,-2 7,-6 9,-7l18 -10c-16,-18 -35,-35 -42,-60 83,16 190,65 275,73 -31,-28 -79,-43 -114,-66 35,-11 38,0 77,-5 -10,-13 -16,-13 -20,-31 58,-2 48,21 66,58 30,-2 20,3 30,-23l12 19c8,8 12,8 19,11 8,-13 6,-14 14,-27 23,8 8,2 29,16l4 58c-19,-3 -34,-7 -52,-5l-48 12c50,12 39,3 67,40 1,2 5,7 6,9 8,10 3,4 10,12l24 31c-22,-9 -13,-9 -39,-11 9,24 14,26 48,38 108,37 50,-83 99,-100l89 6c-13,-24 16,-3 -21,-21l-21 -8c-1,-3 -3,-2 -4,-3 21,-10 83,51 137,50l-16 -12c23,-21 14,-27 -1,-46l22 -21c-89,-30 -105,-66 -229,-79l-12 28c-44,4 -74,-25 -116,-37 -50,-14 -74,-19 -122,-37 -52,-19 -207,-67 -253,-45l2 -73 -23 -22c3,-27 3,-38 15,-58l-15 -7c33,10 31,31 43,-3 -15,-10 -24,-10 -40,-19 -2,-1 -17,-12 -18,-12 -1,-1 -2,-3 -3,-4 -2,-1 -3,-3 -4,-4 -1,-2 -2,-3 -4,-5 -12,-12 -16,-10 -32,-28 -10,-11 -3,-13 -22,-24 3,20 11,33 21,49 30,48 31,25 31,79 -1,59 28,-25 17,171 -2,30 -4,38 8,63l6 39c0,43 27,161 34,208 11,73 -4,163 2,238 6,67 -7,110 7,167 10,37 -6,38 -9,44l-109 7c7,-76 19,-335 -27,-379 -40,12 -33,27 -37,73 -4,44 -8,54 0,98 10,62 -12,132 14,196 -23,7 -49,12 -78,12l-6 -50c-33,38 -32,69 31,70l250 -1c38,0 51,1 90,-3 62,-6 132,24 322,-8 70,-11 156,24 221,10 83,-18 553,18 679,6 145,-13 123,-6 241,-5 36,0 45,6 75,9 48,3 117,-8 174,-4 61,4 114,1 173,4 60,2 115,-5 174,-6 51,-2 120,12 158,-11 -52,-26 -271,0 -347,-6 -115,-9 -229,-9 -342,6l-1 -27c16,21 15,6 19,4l-4 -54 -28 4 17 -56 -37 -12c28,-17 26,-8 49,-17 -31,-24 -69,15 -92,26 -1,-26 3,-15 31,-39 35,-30 2,-6 45,-15l-3 -47c32,5 1,-5 31,19 8,-27 -13,-12 19,-22 25,-8 17,9 16,10 -2,14 8,24 16,36 1,-1 11,5 12,-22 2,-33 -25,-41 -53,-33l5 -73c81,-37 333,-82 366,-103 -82,-9 -261,58 -362,68 -2,-43 -9,-118 2,-159 7,-29 7,-1 16,-38l16 -25c31,-4 6,41 5,47 -6,21 1,15 3,30l3 62c58,-11 20,-30 27,-67 4,-18 29,-40 40,-58 2,93 -9,43 -22,100 59,-23 9,-15 51,-3 12,-18 26,-38 39,-53 -1,29 -8,26 -18,49 23,-2 19,-1 31,-21 16,29 -5,11 23,22l33 -55c16,-19 2,-4 19,-15 -1,65 -12,15 -22,66 32,-7 10,-10 31,-20 2,-1 36,-4 45,-5 15,-30 12,-42 49,-41 -17,38 -22,14 -34,59 34,-10 22,-8 41,-29 58,-65 41,-77 80,-106l-6 56c9,10 -1,0 18,7l8 21c-26,1 -32,15 -34,36 20,-4 24,-16 34,-36l12 -8c1,-14 -16,-66 15,-82l16 1c0,0 2,1 3,1l4 -20 -36 9c6,-37 11,-9 24,-54 -54,4 -57,37 -88,75 -11,13 -13,21 -24,33 -4,-4 -33,1 16,-64l46 -67c-44,24 -35,42 -66,68l-17 -13c15,-15 36,-49 49,-66l-8 -4c-1,0 -3,0 -4,-1 -8,-1 -12,0 -16,-3 3,-18 3,-13 6,-23 1,-2 4,-8 4,-10 3,-19 3,-3 -2,-15 -1,0 -12,-26 -37,13 -2,-2 -5,-6 -6,-4l-26 -20c53,-24 77,-9 130,-27l8 -16c9,-14 45,-34 82,-43 -6,61 3,81 10,96 0,1 2,4 3,5l2 -77c-5,-27 2,-9 -14,-25 17,-4 34,-5 49,-3l-6 17 58 8c28,34 78,49 121,72 48,27 63,61 120,73 -5,-23 0,-9 -40,-33 -16,-10 -28,-17 -40,-33 44,2 54,23 75,25 1,0 3,0 5,0 1,0 3,-1 5,-1 33,-1 60,16 79,36l-73 -20c180,77 80,218 100,346l-34 -8 29 25 -18 9c-2,0 -4,1 -6,2 -33,3 -33,-22 -84,-32l10 9c38,28 60,32 105,48 -10,48 -1,117 28,153 12,-70 21,-15 30,-66 5,-26 15,-67 14,-85 0,-109 -15,-22 0,-184 12,24 15,28 6,52 38,-7 11,-9 44,-28 -14,-20 -15,-49 -17,-85 28,-8 -4,7 12,-4 13,-9 6,-4 12,-11 45,-14 33,-15 40,-23 -61,2 -46,-12 -90,27l-14 -44c34,-16 22,-20 67,-32 32,-7 61,-5 85,-18l-65 -3c-2,-30 -1,-20 12,-54l-34 33c-11,-19 -8,-4 15,-51l38 -43c6,6 4,4 9,16 5,12 8,20 9,26 5,27 -6,-15 0,21 8,51 -4,6 15,27 -4,-17 -7,-64 1,-81 10,-21 -3,-6 18,-16 28,20 9,12 15,49 3,21 7,21 24,46 2,-1 -7,-11 24,-6 32,6 -3,-2 30,13 15,-19 11,-19 41,-24l5 -62c-22,16 -2,-5 -15,14l-30 46 4 -34 -59 27c11,-37 44,-33 34,-78l-25 27c-3,-2 -5,-6 -6,-5l-12 -25c-46,-11 -85,-8 -110,28 -5,-36 -28,-26 77,-60 23,-7 68,-15 93,-16 36,0 55,19 90,16 32,-3 13,-15 92,-12 -28,15 -37,7 -45,43 69,-60 244,-5 321,25 -2,19 0,31 -1,50 -5,83 34,2 0,156l-37 8c8,-31 -2,-14 26,-33 -31,5 -36,15 -65,23 17,-29 28,-25 45,-54 -32,8 -51,24 -70,38 -5,39 8,23 -14,48l14 -86 85 -12c-15,-20 18,-7 -67,-23 -29,-5 -49,4 -65,18l-37 5c22,22 27,-2 15,73 -8,48 -12,36 -26,46 0,-15 3,-31 1,-44 -9,-46 -4,-20 -21,-25 -4,8 10,18 -15,33l-7 -28c-30,15 -17,11 -38,31 -15,14 -13,5 -23,25 -9,-10 -19,-17 -4,-35 25,-31 21,4 34,-34 18,-6 11,0 24,-15 26,-4 14,2 30,-15l-34 -10c-16,-4 -30,-5 -47,-8 -36,-5 -55,-15 -94,-11 22,11 27,4 49,21 -98,-5 -124,-26 -173,46 12,-8 7,-4 17,-11 1,-1 12,-10 12,-10 22,-15 -4,-10 35,-10 -7,18 -10,19 -22,30 -18,16 -14,13 -39,21 -5,57 6,40 18,85 -14,30 -17,20 -33,46l87 -76c-18,6 -21,9 -33,16 1,-29 4,-51 48,-69 1,16 1,8 -1,23 -4,28 -6,4 -4,21 0,0 9,31 10,42 -42,11 -33,20 -50,39 -23,28 -29,5 -50,51 26,-6 24,-8 39,-26l62 -58c21,-17 23,-11 44,-24 -2,-1 -4,-4 -5,-2l-23 -13c4,-39 9,-22 28,-37 -27,-10 -32,10 -37,-32 48,-7 36,12 35,-42l144 -4c0,1 -12,17 -13,17 -19,2 -17,-2 -24,15l-32 -5c-1,0 -3,-1 -4,-2 -13,-4 5,-4 -11,-2 -8,33 -17,78 10,99l7 -21 29 -12c-2,29 4,17 -13,34l-15 15c16,6 6,2 32,-7 1,2 3,5 8,11 9,7 4,3 12,9 19,-20 1,-6 26,-14l-31 -18c28,-17 8,-19 43,-34 -1,27 -2,23 -10,45l37 -3c9,1 4,-1 13,3l0 38c-20,13 -22,14 -46,16l6 -9c1,-4 7,-14 8,-15 -16,8 -17,9 -28,17l14 7 -8 7c-29,14 -21,2 -46,22 1,1 3,0 3,1 6,21 -3,-17 26,18 -19,6 -18,3 -30,18l-22 31c7,4 0,3 16,8 27,8 -4,-3 21,5 50,-57 32,-33 65,-40 29,-7 -9,-21 27,-3l-3 -43c-4,5 -60,41 -86,40 23,-36 17,-29 58,-40 1,-1 1,-5 1,-4l-1 -13c43,-26 19,36 36,-16 12,-38 -15,-105 9,-190l63 -10c-3,12 -35,32 -39,42 0,57 6,96 8,151 1,53 0,98 7,149l19 -9c-26,48 -7,12 -40,29 1,59 -4,98 35,133 -25,63 -43,96 -9,169 -66,2 -12,-13 -42,-166l-17 31c-11,-15 9,-13 -12,-30l-10 -5c42,-39 1,-12 15,-44 12,-13 7,-6 27,7 3,-30 3,-112 -8,-141 0,-1 -6,-15 -6,-16 -10,-17 -7,-10 -13,-16 -47,21 -86,40 -126,72 32,7 75,-25 109,-46 -2,51 -75,57 -108,89l-39 60c-7,28 8,60 20,76 15,-20 8,-17 16,-38l15 44c-34,14 -10,9 -13,52 -3,39 -26,26 13,54 12,-11 -2,7 11,-12 1,-2 2,-4 3,-5l12 -5c10,18 -19,-10 10,12 29,-8 24,-18 52,-31 20,-9 56,-18 20,-40l18 -14 1 46c-72,29 -84,28 -97,60 36,-7 30,-13 61,-20 -39,32 -66,16 -144,19 -60,2 -116,4 -177,4 6,-27 13,-23 -4,-42 -20,11 -14,24 -4,43 -84,-3 -159,5 -230,-3 -46,-6 -49,8 -75,7 -17,0 -36,-9 -76,-9 -34,0 -46,-3 -77,-6 -54,-6 0,10 -73,10 -32,1 -53,-4 -78,7 23,15 67,11 93,9 74,-5 170,12 233,5l558 -3c145,0 317,12 457,-6l418 10c78,3 156,5 234,9l671 -7c227,-13 374,30 585,10 68,-6 273,-1 316,-27 -30,-21 -100,-3 -139,0 -63,5 -104,-12 -157,5 11,-16 13,-10 51,-28 14,5 3,1 15,8 8,5 3,4 15,8 15,-20 27,-33 50,-34 -20,11 -15,8 -19,32 27,-3 30,-14 42,-29 24,8 18,9 40,15 30,-23 22,-4 27,-25 -15,-16 -20,-13 -31,7 2,-38 15,-37 43,-49 -4,23 19,24 41,19 35,-8 28,-11 34,-32 27,-92 -13,-84 38,-101 -19,-14 -14,-4 -17,-33l29 -41 -13 -10c-8,-11 -8,12 -6,-13 2,-18 13,-15 30,-15 13,13 0,-3 14,14l61 -2c-15,38 -22,9 -41,60l-33 -3c6,22 3,6 6,17l7 21c29,-17 2,-11 38,-21 -30,51 -37,44 -55,110 27,-8 13,6 28,-20l-7 36c21,-8 12,-11 29,-4l-8 25c-35,-1 -49,-11 -77,8l45 11c-10,16 5,16 -27,15 -33,-1 -7,-10 -34,5 -2,6 -6,44 -3,55 64,35 494,8 606,10l475 5c72,2 122,-25 159,-4 49,27 1146,-4 1326,9 62,4 130,21 178,-11 -4,-4 -1,-1 -9,-6l-21 -14c-2,-120 -29,-69 -101,-99l0 -52c-9,-6 2,-4 -17,-7 -3,-27 -7,-43 -10,-64 -5,-29 -17,-13 -60,-11 -5,24 5,19 -20,32 -31,-18 -26,-41 -51,-58l-270 -46 -9 -108 -32 12c-1,0 -27,3 -37,4l1 -55 -32 -3c-5,11 -7,0 -7,26 0,17 8,41 1,60 -5,13 -6,12 -11,18l4 -48c-18,3 -18,6 -19,6 -23,7 -3,-15 -37,9 -1,-13 -2,-30 -5,-40l-19 -116c-67,3 -1,39 -54,47 6,-25 13,-44 -3,-71 -46,17 7,33 -52,27 11,-27 36,-45 -9,-69 -24,12 -38,43 -64,63l-5 61c-12,-19 -13,-31 -30,-35 -17,32 10,71 -24,95l3 45c-12,6 -27,17 -30,18 -10,-16 -2,-30 -8,-49l-10 -19c-12,-18 -1,-6 -18,-18 1,-23 -41,-166 -52,-177l-18 35c-19,-32 -5,-35 -39,-45 8,-28 10,-31 -6,-53l-60 60c-38,34 -34,21 -36,83 -24,-3 -22,-5 -43,-12l-1 49c-4,1 -6,0 -7,2l-28 1 -7 122 -118 -8c8,-38 12,-152 4,-192 -5,-30 -24,-2 -15,-91 5,-42 -1,-62 -5,-99l82 14 22 -24c95,-4 412,-9 511,7 33,5 90,-9 107,27 13,29 14,61 33,88 17,26 -4,67 0,115 3,42 13,48 13,101l17 -38c21,33 -3,25 29,47 -8,-110 -7,-270 -60,-360 -11,-12 -50,-16 -58,-21 2,-4 8,-21 10,-25 4,-14 1,-17 8,-29 11,-21 5,-7 20,-19 8,-6 16,-13 24,-20 51,-45 94,-118 153,-171l75 -91c-39,-23 -37,-6 -76,-3 -52,2 -221,-16 -307,-13 -35,2 -63,9 -99,9 -42,-1 -68,-3 -113,-1 -37,2 -149,-5 -181,4 -27,7 -8,-3 -24,16 48,5 284,-7 307,5 -45,5 -56,-5 -85,30 -12,-10 11,-12 -47,-13 -44,0 -163,-3 -196,-12 -35,-10 -2,4 -45,7l-199 14c-93,10 -493,-22 -541,9l54 6 -52 60c3,-43 18,-2 28,-60 -40,24 -37,53 -55,29l-8 -27c-26,8 -7,-6 -23,12 -7,7 -8,14 -11,19 -22,9 -19,16 -36,36 17,-3 9,4 24,-10 17,-17 7,-2 12,-26l20 15 -24 42c26,-6 18,-6 32,-29 19,20 1,-4 11,17l4 10c1,1 1,3 2,4l60 9 20 -25c-2,25 -2,-8 -2,21l14 -3c1,-1 12,-8 14,-9 5,13 -1,10 16,15l33 -39c0,0 1,-2 1,-3 7,-11 26,-10 35,-28 -17,49 -8,15 12,42 -49,-18 -30,-6 -36,-2 8,12 3,13 25,13l32 -7c-12,30 -3,8 -14,24l-7 8c-5,10 -2,6 -5,14 21,-7 12,-10 35,-30l12 -9c23,-22 -1,-10 24,-20 -11,27 -10,31 -20,52 -16,3 -4,-14 -18,7 -16,24 2,16 3,17 18,-12 10,0 15,-24l32 -29c22,-1 30,-4 45,-12 -10,21 0,10 -18,19l-16 17c1,1 2,3 3,5l7 10c22,-9 31,-20 56,-44 13,-12 16,-13 27,-25 16,-17 8,-15 29,-24l3 22c-58,26 9,8 -74,66l-25 19c-7,4 -35,12 -45,14 10,-13 12,-13 7,-29 -20,11 -3,-6 -24,30 -110,-3 -244,22 -349,11 -114,-13 -314,-4 -345,-11 35,-36 75,-24 102,-28 80,-14 53,31 129,-44 22,-22 -2,-13 32,-21 -10,10 -14,17 -25,28 -21,22 -7,-4 -23,33 18,-1 33,-8 46,-25 15,-19 -7,2 12,-17l14 29c17,-9 18,2 0,-15 43,-5 16,5 36,-18l57 -64c8,-18 5,-5 -3,-17l49 -4c-47,-35 -441,19 -512,-10 35,-22 547,-16 632,-12 194,11 331,-11 488,-11 58,0 115,-1 173,-2 13,-28 9,-4 42,-17 -74,-12 -473,12 -600,8 -97,-3 -82,10 -196,3 -104,-6 -397,-5 -482,8 -25,4 -13,10 -43,5 -21,-3 -21,-7 -48,-7 -57,-1 -136,-19 -178,16 13,27 68,72 89,90l99 95c-42,-17 -65,-32 -112,-29 -38,2 -67,-8 -118,-5l-12 -30c-27,4 -54,13 -85,17 -115,16 -38,65 -75,124zm-6017 -66c3,13 21,1 6,-1 0,0 -3,1 -3,1 0,0 -3,-1 -3,0zm8034 -143c-2,17 16,-5 7,-3 -6,1 -6,-2 -7,3zm-1261 966c-15,7 -9,-1 -21,18l21 -18zm1309 -46l24 -15c44,-12 61,-24 81,-54 18,-8 25,-15 46,1 -14,4 -14,3 -26,11 -2,1 -7,5 -9,7 -9,8 -5,6 -9,12 -22,9 -49,33 -52,59l40 -39c18,-22 4,-1 12,-20 15,-5 8,-2 24,-13l20 -17c28,0 30,-3 52,-5 -30,31 -96,52 -113,90 32,-8 14,-3 41,-22l71 -50c5,-3 14,-10 20,-11 35,-5 12,1 20,6 -39,19 -84,49 -109,84 27,-11 3,1 19,-9 29,-18 77,-64 121,-77l-27 28c-8,6 -23,12 -33,20 -18,13 -40,37 -51,49 39,-1 19,-29 79,-49 -15,5 -12,15 -17,52 -20,4 -44,17 -120,3 -42,-8 -71,-17 -114,-17 14,-21 6,-12 10,-24zm24 -15c-27,8 -12,0 -24,15 -29,12 -28,22 -61,18 24,-33 23,-19 51,-47 1,-1 3,-3 5,-5 -16,5 -50,25 -67,36 -25,18 -38,24 -75,19 12,-10 28,-25 36,-36 -34,6 -32,24 -58,34l-174 8c-29,-3 -60,-6 -80,-19l73 -58c24,-19 49,-30 77,-44 -31,46 -106,59 -107,98 21,-12 76,-59 103,-63l-58 47c-15,14 -11,12 -17,23 9,-2 16,-1 26,-5 43,-17 -20,5 62,-52 20,-14 69,-48 94,-52 -28,52 -96,66 -120,104 20,-2 115,-65 129,-77 21,-17 18,-24 56,-17 -15,28 -104,64 -126,96 34,20 89,-67 161,-86 2,23 -3,25 -13,47 24,-6 47,-25 61,-31 24,13 14,7 23,25 17,-9 6,-6 26,-12 3,-2 18,-5 18,-5 17,-8 32,-52 60,-15 -33,13 -55,33 -81,54zm-336 -126l33 -23c-4,0 -11,3 -14,6l-19 17zm-4434 -2c0,7 8,8 6,-1 -2,-8 -6,-13 -6,1zm-4075 -740l28 -19c-15,4 -18,8 -28,19zm4288 697c12,-12 10,-2 14,-25l-14 25zm-1 277c-4,14 5,0 5,-2 3,-24 -4,-4 -5,2zm4241 -984c28,-3 12,4 22,-10l-22 10zm-2736 330c8,13 0,10 14,5 -9,-10 7,-4 -14,-5l17 -57c-28,1 -63,18 -75,29 -29,29 -4,15 -1,20 18,1 8,-17 46,-28 -13,38 -7,7 -23,43 16,4 13,8 36,-7zm-3263 646c0,3 10,13 7,0 -2,-9 -7,-16 -7,0zm-109 -928l-11 -21c2,22 -4,12 11,21zm4737 1049c0,0 -7,0 -8,2 -5,20 9,1 11,-1 9,-13 -2,-1 -3,-1zm647 -309c32,-6 13,3 21,-13l-21 13zm-8213 -959l1 -12 66 -46c2,-1 4,-3 5,-5 -30,5 -35,-4 -59,-7 -29,-3 -21,8 -51,19 9,-23 13,-15 2,-37 -28,7 -40,20 -54,41 18,-10 23,-20 47,-28 -7,31 -22,45 -28,65 51,-28 40,-38 73,-49 -11,26 -11,15 -27,42l59 -41c-6,18 4,13 -24,38l-9 8 -19 18c-1,1 -3,3 -4,4 25,-22 3,-3 22,-10 -8,35 -4,7 9,19 6,-10 4,-11 7,-18l15 -2 1 -12c20,-7 11,0 22,-17 -43,12 -14,4 -22,17 -12,-5 -10,-8 -10,4 -18,0 -1,-2 -6,10l-16 -1zm269 42c-5,-7 -2,-17 -10,-10 -10,9 -7,4 10,10zm-147 34c-9,-5 -10,-21 -17,3 10,-5 2,0 17,-3 -9,16 -8,21 -31,24 -9,-24 -9,-28 -34,-42 6,14 6,17 13,26 16,23 10,11 21,16l15 16 29 -33 -13 -7zm544 1087l21 1c-13,-12 20,-10 -9,-7 -17,2 0,-4 -12,6zm3014 -687c-4,17 6,0 6,0 1,0 3,-2 3,-2 0,-9 -4,-17 -9,2zm2250 -71c9,-7 7,-5 13,-18 -9,6 -15,3 -13,18zm-1801 214c0,7 12,18 9,1 -3,-14 -9,-5 -9,-1zm-3890 -565c-8,18 7,-1 7,-1 4,-23 -4,-7 -7,1zm7167 278c20,-5 -2,6 12,-3 11,-8 7,-6 12,-12 33,2 26,-7 53,-21 -16,29 -10,8 -34,26 -17,11 -10,11 -27,27 -39,34 -55,-7 -77,37 14,6 -20,4 16,4 36,1 24,-25 50,11 -15,17 -33,15 -34,27 0,0 1,2 1,3l2 7c0,1 -3,19 -3,20 9,-3 11,-10 29,10 14,-5 32,-10 35,-10 -12,31 -52,14 -115,8 22,-48 12,-20 11,-49 0,-3 -2,-4 -2,-6 -40,0 -27,40 -28,70 -22,-3 -102,32 -136,43 4,-24 11,-39 13,-56 2,-28 -19,-12 19,-32l1 53c41,3 34,-18 38,-58 -23,4 -14,2 -38,11 2,-2 4,-4 6,-5l61 -29c29,-16 0,-4 23,-20 14,-10 7,-3 15,-7 14,-8 2,1 13,-11l-51 -2c16,-37 11,-28 4,-69 31,-9 49,-32 84,-24 58,12 28,36 81,18 -7,20 0,12 -10,24 -30,9 6,-7 -12,4 -9,6 -9,7 -12,11 -31,13 -17,0 -29,22l25 -18c1,-2 3,-3 4,-4zm-2940 300c-4,-28 10,-13 -15,-17l15 17zm-2127 561c-31,12 -15,3 -20,19l20 -19 42 -14c-7,-5 -2,-11 -21,-5 -33,11 -16,7 -21,19zm-229 -72c6,-3 7,1 10,-12 0,-1 1,-18 1,-20l-11 32zm-1805 -1047c8,-9 6,-4 6,-18 -11,9 -14,5 -6,18zm858 261c-9,-21 6,-14 -20,-15l20 15zm7201 175c43,24 21,5 23,4l-23 -4zm-2594 371l3 -25c-13,16 -14,10 -3,25zm-5932 -277c-2,20 10,13 8,0 -2,-14 -8,0 -8,0zm5337 106c12,-6 2,2 13,-9 7,-7 8,-12 7,-18l-20 27 -23 15c-34,25 -47,26 -53,52 29,-9 64,-42 76,-67zm-4714 -589c-8,-20 16,-11 -24,-13l24 13zm7948 309c25,-6 7,9 17,-15 -23,10 -13,9 -17,15 -19,6 -2,1 -16,7 -3,1 -8,4 -11,5l-75 8 17 -22c0,-1 9,-12 9,-13l7 -8c1,-1 3,-2 4,-3 8,-7 4,-3 13,-11 -32,8 -50,-1 -84,-1 -35,-1 -162,-4 -189,8 -24,10 -18,27 -60,31 2,-3 15,-17 15,-17 11,-19 1,-20 -10,-15 -20,7 -37,40 -71,44 7,-23 15,-18 36,-36 11,-9 4,-4 11,-14 -31,-12 -47,0 -78,2 -28,2 -68,-7 -99,-7 -46,-1 -153,26 -188,4 0,-5 5,2 6,-25 0,-15 -4,-14 0,-35 15,-8 14,-7 27,-11l88 -16c59,0 392,-17 405,-10l18 11c27,7 68,-4 97,-3 80,2 331,12 381,25 28,55 -2,141 -6,206 -6,105 -1,61 16,139 15,65 -9,177 15,233l-20 14c9,22 13,17 5,45 -31,111 -42,58 -79,112 36,30 26,-9 28,32 -10,8 -1,21 -54,1l-6 18c0,0 -13,10 -11,10l21 60 -1 -52 42 3 -16 59c-30,5 -92,21 -119,7 6,-18 15,-10 17,-20 1,-2 3,-2 5,-3 -32,-73 -18,-31 -78,-47l-2 65c-43,4 -24,-1 -55,13 -26,13 -162,8 -196,8l-85 -43 70 -17c8,-28 -39,-23 -61,-21l-30 34c-27,-4 -54,-7 -25,-35 -57,-10 -173,-4 -213,-20 16,-28 27,-41 68,-51l-9 9c-1,1 -3,3 -4,4 -21,21 -24,10 -28,44 15,-14 34,-29 51,-43 22,-19 24,-26 58,-28l-3 20c20,-6 49,-12 50,-39l-37 -3c14,-23 40,-29 51,-54 32,5 20,8 46,-1 -13,-10 -69,-16 -91,-17 -1,-1 -4,-19 -5,-20 -6,-18 -2,-7 -12,-19l1 39c-24,10 -84,8 -116,5l37 -25c-18,3 -34,5 -51,9 -44,10 -33,4 -41,1 -4,-27 12,-15 25,-49 -27,3 -30,3 -40,24 -9,20 -5,21 1,37l-97 12c-6,-22 36,-15 -52,-12 11,-25 10,-19 38,-35 67,-37 91,-19 157,-31 32,-6 16,-5 24,-10 -98,-5 -186,12 -279,18l2 -21 -29 9c2,-11 3,-9 5,-22 2,-15 -8,-9 1,-8 8,-25 7,-22 28,-37l-25 -5c20,-20 18,-14 40,-27 -1,-33 3,-48 4,-75 0,-2 1,-27 1,-28 -2,-22 0,-12 -11,-20 43,-49 -5,18 15,-22 0,0 -18,-6 14,-15l233 -19 48 -30 -5 37 29 -6c10,-3 13,-6 24,-8l-23 -11c-18,-6 4,5 -10,-2 8,-15 2,-7 15,-18l24 -23c-18,5 -24,8 -38,13 -14,4 -9,0 -25,7 -28,12 -29,14 -62,21 20,-28 3,-1 41,-27 10,-7 7,-6 13,-13 -45,4 -67,31 -124,39 13,-29 -5,2 19,-20 13,-12 7,-2 16,-21 -32,-6 -23,-7 -40,13 -26,-18 -11,-15 -93,16 20,-56 131,-47 184,-47 -55,-37 -157,11 -216,6 6,-34 12,-74 -4,-105 -1,2 -3,4 -3,5l-8 17c0,1 0,14 0,16 -3,-55 3,-68 57,-75 14,25 -12,10 11,21 21,10 -2,-5 14,1l1 29c-27,0 -24,1 -36,10 74,14 144,-20 193,-19 39,1 12,1 12,14 -1,21 44,16 60,11 16,-4 7,-2 16,-9 -9,0 -32,3 -38,2 -43,-3 35,9 -14,-2 -1,-1 -4,-1 -5,-3 -1,-3 -4,-3 -6,-4 68,-14 45,5 97,-2 53,-6 35,7 79,8 27,1 41,0 68,4 5,-14 1,6 1,-8 -1,-24 -5,13 -1,-7 61,-20 261,16 294,14 21,0 26,-8 60,-6 23,1 66,-9 108,-8 -32,-31 -24,-4 -14,-14 -2,-4 -6,-13 -9,-16 22,-10 25,-20 50,-25 -20,25 -15,14 2,45 40,4 29,-1 35,-6l-31 -15c16,-23 13,-6 17,-36 -45,-2 -107,-4 -150,-1 -14,1 -23,3 -34,4 -21,3 -4,1 -27,-1 -57,-4 -51,10 -55,12 63,-5 151,-15 209,-3 -23,21 -34,23 -48,45 0,-1 1,-2 1,-2l-4 -6c-15,-7 -8,-3 -26,-1l-1 -23c-32,7 -23,33 -78,35l-5 -16zm-962 450c18,-14 4,4 12,-20 -6,4 -14,0 -12,20zm-4172 -216l0 16 -14 0c2,-25 -3,-11 14,-16zm16 -9c-14,7 -7,-1 -16,9 6,-26 20,-34 35,-55 25,-36 6,-22 25,-42 47,-48 38,6 58,-63 0,0 1,-1 1,-3 0,-1 1,-2 1,-2l-52 21c5,-43 16,-65 58,-71 43,-7 70,9 76,-27 47,5 55,-24 97,-20 -24,27 -79,35 -109,60 23,14 202,-74 241,-91 -6,-13 -9,-19 -10,-38 38,-15 13,-25 58,-21 39,3 26,-5 61,-9 -9,28 9,14 -31,20l25 17c-47,50 -188,62 -234,115 -33,11 -13,4 -44,0 -15,19 -39,39 -46,67l-35 32c-11,17 -2,23 -22,45l19 5c-10,22 -25,50 -45,61 -22,-25 -17,-24 -3,-46 -11,-1 9,2 -8,4 -16,1 4,6 -10,-4 9,-18 10,-25 22,-44l12 -11c21,-21 23,-20 17,-34l-29 45 -28 1 -26 58 20 11c1,-1 3,3 5,4l-43 44c5,-33 12,-29 5,-47l-45 9zm5864 -478l20 -11c-24,-2 -18,-9 -20,11zm212 -9c21,-10 11,5 22,-23 40,-10 40,-35 78,-34l-83 78c20,9 15,-1 51,-29 83,-66 30,-50 170,-58l-335 -25c57,-21 139,-5 195,-2 38,1 74,-2 113,-1 31,1 88,4 116,2 -14,41 -141,150 -180,186 -28,25 -4,9 -39,21 -20,7 -20,9 -40,22l37 -71 -29 -11c-2,1 -6,5 -7,7 -1,0 -2,2 -3,3 -3,3 -3,5 -10,12l-13 10c-2,1 -13,9 -13,9 -12,-16 -24,-36 -53,-22 -28,14 -9,24 -38,45l-21 -15c15,-17 20,-14 6,-37 -1,1 -3,2 -4,3l-20 24c-11,-26 8,-7 -6,-28 -52,26 -36,48 -119,125 10,-45 55,-76 74,-117l-19 -26c-1,-3 -3,-3 -5,-5 -4,63 -12,44 -22,47 -5,-25 3,-6 -10,-27 -18,6 -9,2 -17,20l-14 -14c-36,-28 28,11 -11,-5 -21,24 -1,10 -26,21 -2,-21 9,-18 -15,-22 21,-4 2,2 11,-11 54,-2 5,-5 53,-16l-10 -13c26,-8 10,10 18,-17 -34,11 -8,0 -18,17l-24 6c12,-12 15,-9 11,-24 -56,19 -38,8 -73,44 -6,-5 -22,-1 -6,-24l22 -26 -24 1c5,-29 12,-10 37,-48 -10,4 -38,17 -42,29 -11,31 -4,7 5,19 -3,15 -1,12 -8,24 -2,-1 -4,-3 -5,-4 -2,-1 -4,-4 -5,-5l-12 -12 -37 39c22,10 4,1 28,1l8 3c-12,15 -6,12 -23,21 6,15 3,11 13,21l-45 2c-27,-46 -31,-34 -85,-32 -4,23 -13,55 -30,65 12,-20 9,-16 -9,-30 10,-11 14,-14 24,-29 14,-22 40,-33 64,-55 -34,-2 -24,1 -48,18 -26,17 -25,5 -40,21 7,-42 -1,12 27,-27l-30 -15c8,-10 8,-11 16,-21l17 -19c-27,12 -7,5 -33,8 -16,2 -5,-2 -27,6l25 9c-2,2 -3,4 -4,5l-19 25c-9,11 -9,14 -23,14l7 -22c4,-4 9,-5 17,-18 -35,10 -42,25 -69,38 16,-34 12,-5 19,-40 45,-8 18,-38 72,-36 30,1 63,13 85,1l7 12c24,-26 43,-23 83,-22 35,1 75,-3 111,-3l-21 29c25,-14 45,-29 78,-32 6,23 -26,13 13,14 13,-15 13,-29 35,-13 2,1 3,20 9,7 1,-1 3,3 4,4l48 -5c-30,5 -23,-2 -29,25 15,-11 21,-16 30,-25l101 -9 -25 28c35,-14 43,-33 67,-20 -23,20 -17,7 -29,31 -16,13 -10,6 -22,23 -22,6 -46,25 -55,44 -3,7 -3,13 -4,21 49,-7 -10,-12 45,-14l-17 -25c27,-6 17,-2 31,-26zm-3375 410c28,-33 5,-16 2,-21l-2 21zm-743 95c-17,10 -18,3 -19,27l19 -27zm3679 -529c2,27 13,7 11,2 -5,-15 -11,-2 -11,-2zm831 1064l-21 -6c6,18 -5,20 21,6 18,-9 4,0 12,-18 15,-32 10,-16 3,-29 -25,15 -7,6 -23,31 3,4 3,11 8,16zm-9041 -106c4,10 -5,7 5,9 15,5 1,4 14,-2 -13,-15 8,-5 -19,-7 8,-26 25,-105 23,-136l-6 -26c-35,-9 -40,6 -29,69 5,27 3,21 1,48 0,2 0,23 1,23 7,34 0,9 10,22zm3974 -371c9,-13 13,-19 7,-39l-7 39zm-4555 -628c28,-10 28,-19 43,-35l-43 35zm2839 1085c23,-5 14,1 16,-31 -2,17 -12,22 -16,31zm3569 -160l2 -23 15 -9c1,0 6,-4 8,-6 -5,22 -11,24 -25,38zm2 -23c-14,10 -4,-17 -12,14l10 9c-6,21 -16,52 -40,64 7,-17 11,-26 18,-37 -37,19 -4,12 -38,39l21 56c11,45 -21,47 18,59 14,-38 3,-62 9,-98 29,-3 57,-1 75,-15 22,-18 5,-3 14,-17 -27,-12 30,8 -16,-2l-21 -12c6,38 3,10 -8,21l-47 1c7,-13 17,-28 26,-44 13,-23 19,-26 27,-52 1,2 3,3 4,6 10,34 3,10 13,11 22,1 13,-15 14,-20 -18,-21 -35,-21 -60,1 -11,-10 -25,-19 -37,-27 -32,25 -23,18 -28,36 11,-9 9,-7 25,-14 -6,17 -11,26 -18,44 -11,28 -15,25 -25,52l-32 58c20,-4 15,11 27,-19 5,-12 5,-24 5,-39 28,-15 47,-63 57,-95 19,11 9,1 19,20zm-664 -9c20,-6 8,6 17,-14 -43,6 -9,-3 -17,14 -18,7 0,-5 -15,7 -8,6 -9,11 -12,16 27,0 21,1 27,-23zm250 141c15,-13 6,-3 16,-22 -28,13 -15,-5 -16,22zm680 -1931c18,-9 13,-5 23,-30 -7,7 -6,5 -14,15 0,0 -9,15 -9,15zm-2180 1920c24,-7 7,7 20,-16 -14,4 -18,1 -20,16zm-228 -484l-16 3c-27,2 0,-2 -8,12l-12 -6c12,-9 20,-19 40,-21 -17,1 0,-3 -4,12zm-3673 -309c-2,16 12,9 11,-1 -2,-12 -8,-19 -11,1zm3839 522c25,-13 15,-5 24,-25 -10,6 -7,2 -14,10 -9,9 -3,3 -10,15 -25,2 -14,-2 -31,10 25,23 -25,8 10,8 10,-1 4,5 21,-18zm3260 -104c24,-2 16,-4 35,-17 -22,4 -23,7 -35,17zm-6977 156l19 -23c-22,8 -21,-8 -19,23zm2834 179c16,-7 3,5 15,-8 4,-5 6,-13 9,-20 -13,12 -15,12 -24,28 -37,-1 -12,0 -22,8 5,3 -12,17 13,4 12,-6 2,2 9,-12zm-3340 -897c15,-14 10,-2 13,-28 -12,11 -13,5 -13,28zm6969 549l27 -2c-1,-5 -8,-11 -10,-14l-17 16zm-2707 75c24,-11 14,-2 27,-18 -20,5 -20,-1 -27,18zm1333 219l7 -26c-15,6 -23,0 -7,26zm-5727 -950c20,0 15,-1 26,-13 -26,2 -11,-10 -26,13zm8996 82c23,0 17,4 26,-18 -13,5 -18,10 -26,18zm-4521 1013c0,21 16,14 11,0 -5,-21 -11,-2 -11,0zm-3353 -1255c21,18 1,17 -4,14 0,1 1,3 1,4l-7 29c15,-12 4,-6 24,-13 -2,58 10,66 24,110 -47,-35 -12,-56 -64,-45 9,18 1,7 15,20 14,12 6,3 14,7 -52,67 -71,70 -98,112l-18 -16c10,-17 19,-26 35,-39 8,-6 15,-10 21,-15 14,-11 8,-6 16,-16 -29,9 -63,14 -87,27 27,3 7,-9 27,6 -34,22 -42,7 -67,-12l-39 6c89,36 7,17 56,42 8,4 4,1 12,4l-12 53c-39,6 -19,14 -62,5 20,21 52,36 75,52 2,10 -2,40 2,68l20 8c0,37 1,24 -14,52 31,4 22,3 47,-7l28 28c1,-1 3,4 3,9l-48 -22c-28,16 -25,22 -70,31l-2 43c32,-18 22,-30 57,-35 20,36 23,129 18,169l-10 33 25 4c-20,77 -33,66 -15,131 4,14 3,24 5,28l17 -44c4,165 -6,55 -5,120 0,24 0,12 5,38 5,27 -9,51 1,103 6,25 6,20 3,40 -6,29 8,10 -7,31 -1,28 -1,109 -4,122 -16,-15 -3,6 -11,-15 0,-1 -3,-18 -3,-19 -3,-14 -3,-19 -5,-33 -8,9 -18,22 -29,29 8,-60 14,-46 52,-84 -16,-4 -9,4 -37,10 -5,-15 1,-9 -20,-16l26 -61 -23 -18c28,-15 10,-7 9,-12l-4 -50c0,-1 0,-3 0,-5l0 -24c-6,-34 10,-6 -10,-49 22,-12 27,-14 37,-38 -22,15 -14,17 -42,21 5,-19 9,-4 5,-23 -6,-32 2,-11 8,-36l-32 16c6,44 16,52 -6,86 -2,-26 1,-36 -1,-59 -4,-28 -10,-24 -10,-25 -18,-24 -13,-71 6,-90l7 72c22,-7 30,-15 42,-31 -30,-8 3,13 -28,-6 14,-21 1,-9 24,-21 -2,-1 -4,-2 -5,-3 -2,-1 -5,-2 -6,-3l-11 -9c-1,-3 -3,-3 -5,-5 27,-12 28,-14 42,-37 -45,23 -26,30 -76,20l2 -58c22,-19 9,0 34,-19 -5,-12 0,-4 -11,-19 0,0 -9,-10 -10,-11 15,-30 10,-20 35,-41l-29 -12c5,-36 13,-24 33,-56 -15,6 -14,1 -30,16l-11 16c-25,-44 -18,-68 -7,-103 37,-5 35,-1 52,-17 -19,-31 -19,-69 -32,-104 -11,-29 -84,-105 -174,-78 -14,4 -49,22 -50,37 0,9 -1,-11 2,6 0,1 1,4 1,4l-8 10c-1,1 -3,2 -5,3 -19,13 -21,6 -47,28 -34,29 -21,11 -56,16 -1,2 -1,4 -2,5l-66 12c3,-7 7,-6 -4,-19 19,-2 39,-4 49,-5 22,-3 10,3 23,-13l-13 -9c-9,-7 -6,-2 -13,-11 -5,-6 -8,-14 -14,-23 -23,-35 -14,-37 -36,-52l-34 33c15,24 17,30 8,44 -22,-46 -25,-15 -29,-46 -16,4 -12,4 -28,11 10,-29 11,-9 -15,-37 -2,-2 -9,-12 -10,-13 -28,-29 -11,-10 -50,0l-76 -85c-68,-51 -20,-18 -58,-92 -20,-41 -86,-117 -128,-136l-25 -12c-46,54 -34,-2 -72,45l-27 -8c-1,-2 -4,0 -6,-1l-34 0 30 -33c-33,3 -22,0 -46,16l-20 -14c-13,20 -3,11 -24,20 1,-10 -1,-7 4,-18 -19,-5 -19,-8 -26,-9 -29,-7 -35,4 -70,1 24,-16 32,-4 75,-21 46,-19 72,-8 134,-16l-28 34c22,-4 32,-1 52,-32 17,18 40,10 74,12l14 31c10,-14 1,3 5,-17 2,-10 0,-7 3,-13 36,11 44,47 68,82 28,42 58,59 67,76 31,57 -46,-23 52,76l68 73c-5,-42 -22,-70 -59,-104 -24,-22 -15,-23 -37,-46l-72 -87c-23,-36 -42,-88 -64,-101 -37,-21 14,11 -20,-5l-14 -12c-1,-3 -3,-3 -4,-4l-520 67c-72,10 -50,8 -53,29l26 4c13,-3 7,3 18,-17 49,0 148,-19 185,-6 44,16 99,21 124,63 -64,-22 -29,-21 -102,-39 -20,-5 -15,-7 -31,-13 -33,-12 -113,15 -152,22l-19 36c-10,18 -9,10 -9,30l-14 234c-6,-69 4,-33 -31,-85l-5 33 -41 14c-1,1 -6,3 -8,4 -18,13 -54,49 -61,68 38,-17 53,-57 87,-51 -16,40 2,30 -28,57 -45,42 1,84 -22,245 26,-13 34,-28 66,-31 -6,28 -15,26 -39,40 -30,18 -42,43 -81,50 10,-19 19,-27 28,-46 -47,-46 -11,-29 -16,-122 0,-12 -5,-31 -4,-36 1,-13 12,-5 1,-28 -22,18 -23,28 -49,39l31 10c-40,43 -23,122 -40,192 -7,-9 -5,-2 -11,-17 -13,-31 -7,-72 -10,-103 -18,31 -20,130 -12,154l53 -22c-10,27 -54,34 -58,64 32,-19 61,-40 101,-59 67,-30 58,-52 92,-64 -2,43 -15,17 -12,74 4,71 5,54 -18,58 1,2 3,4 4,5l9 38c-8,18 -16,15 -30,35l20 22c-6,41 -14,75 -2,112 11,31 19,21 21,46 2,28 -9,-12 0,24 3,14 2,-6 8,24 -22,31 -15,33 -22,68l39 16c-17,47 -11,17 -5,66l-4 62c-22,-16 -4,-25 -15,-67 -23,17 -21,14 -32,34 14,24 -4,0 25,23l-13 30c20,17 20,17 22,48 -57,-6 -22,-30 -84,13l88 -4 17 -35 15 32c69,0 481,-16 535,-9l192 11c21,1 71,-2 92,-5 3,-17 6,-34 4,-52 -4,-23 -13,-21 -11,-36 2,-23 12,-14 8,-91l-2 -484c2,-29 -2,-70 0,-84 9,-2 12,-6 15,12 6,-57 -30,-51 -12,-124 14,-58 8,-84 8,-142 29,3 12,-8 27,12l5 -40c26,10 14,9 36,26l-36 61c43,-4 92,20 136,29l-11 4c-38,11 -48,17 -70,53 5,1 11,0 14,1 7,1 10,3 11,4 -20,16 -17,7 -36,21 56,11 106,49 160,27 6,-21 -7,-21 0,-63 18,-12 26,-25 47,-26 -12,19 -16,56 -25,81 -8,25 7,43 18,63 -62,-2 -224,-16 -256,-65 10,1 26,0 34,0 59,4 94,43 165,39l-30 -9c-56,-5 -127,-25 -166,-59 -9,40 4,49 -2,92 2,-1 4,-3 5,-4l15 -11c21,-8 41,3 65,7l-18 86 -11 -42 -9 67c1,1 3,3 4,4 16,14 18,18 17,39 -71,-5 -31,-77 -40,-130 -11,29 3,92 -18,114 -12,-19 -6,-57 -8,-89 -20,25 -15,76 -14,109l19 12c-11,31 -13,11 -12,54 79,16 54,21 146,24l-45 18c16,2 37,3 49,5 20,3 13,6 32,11 24,6 63,10 85,14 3,35 18,69 4,110l-26 -27c-13,26 -13,24 -10,57l-30 -19c-1,-1 -3,-3 -4,-4 -1,-1 -3,-2 -4,-5 0,-3 -2,-3 -4,-5 -7,22 -2,28 -28,21 -7,-13 -16,20 -6,-24 5,-25 23,-21 38,-9l-1 -40 -45 12c2,-41 12,-22 28,-53 -35,9 -12,-12 -45,18 14,53 22,29 16,77 -24,-12 -26,-32 -35,-53 -32,13 -29,39 -34,75 -30,-1 -51,17 -79,27 3,50 22,136 1,175 31,-21 7,-131 19,-165l39 9c-8,37 -1,28 4,70l-23 96 -36 19c5,37 4,32 32,49 -35,7 -24,21 -27,55 68,-5 221,16 273,6 1,-29 -8,-34 -5,-71l-20 2c28,-12 19,-10 34,-28 12,11 33,32 53,14 10,-10 -3,-40 -6,-55 -18,-83 24,-58 45,-97l-47 16c15,-30 18,-17 61,-53 -27,19 -26,26 -64,20 -9,-97 19,-78 -18,-96 -3,-24 -11,-45 -1,-64 13,16 9,32 10,57 13,-28 -1,-49 57,-100 15,-14 15,-6 28,-25l70 40c-9,-18 -15,-21 -7,-36 -23,-13 -84,-9 -108,5 -50,29 14,42 -45,35 8,-57 59,-62 118,-67 46,-3 36,2 62,23 31,23 27,19 33,56 -42,-15 4,-37 -60,-52 29,31 46,80 60,137 10,44 9,90 9,135 1,41 -1,27 -8,36 -6,-14 -2,-138 -32,-224l-14 -22c-38,32 25,47 -7,90l20 14c-11,17 -3,7 -20,23l19 37 -24 42 27 -2c2,30 -3,11 8,28l-10 20c-10,32 22,35 -9,68 -22,-3 -9,0 -11,-11 -26,8 -27,13 -48,21 4,2 2,4 17,5l31 1c0,1 13,16 -8,19 -28,3 20,-15 -24,-3l-50 27c10,0 26,-4 30,-5 45,-1 19,2 29,10 -15,5 -22,5 -43,9l-32 13c36,2 62,-12 98,-17l5 8c13,25 -6,-10 2,5 43,6 29,-3 61,-3l68 2c63,1 37,6 44,12 -63,29 -218,7 -294,9l16 -16 -30 -8c8,-37 11,-20 36,-42 -30,2 -14,9 -25,-13l-60 7 -8 74c-115,9 -298,-4 -358,5 -111,17 -235,-20 -347,-10 -85,7 -93,-2 -137,-3 -12,0 -15,3 -36,5 -58,3 -129,-1 -189,0 -118,0 -225,28 -349,21 11,-21 1,-7 22,-21 1,-25 -3,-69 -4,-101 -20,23 -17,42 -17,71 0,79 -8,55 -24,60 -9,-22 -15,-116 -16,-151 -1,-62 32,-53 12,-136 -41,-172 -10,-141 -10,-281l20 -13 1 -201c-16,-14 -5,2 -36,-18 10,-16 21,-20 34,-30 3,-30 5,-40 -3,-66 -4,-14 -3,-23 -8,-36 -6,-14 -29,-26 7,-72 -17,11 4,15 -56,4 13,-43 -1,-6 18,-28 19,-24 21,-41 37,-68 21,-38 38,-30 52,-86l19 30c44,-16 38,-33 63,-67 23,-33 53,-38 64,-63 -1,-1 -3,-2 -4,-2 -17,-7 -9,12 -13,-5 0,-1 -2,0 -3,-1 21,-32 47,-62 68,-96 15,-26 12,-33 42,-41 12,-3 19,-2 30,-7l24 -17c35,17 77,0 135,-6 43,-4 93,-17 137,-21 40,-3 173,-15 209,-32 41,-21 -8,-23 39,-33 1,-29 -5,-30 11,-53 30,15 15,34 30,69l80 132c32,41 71,71 93,111 38,72 81,110 85,125 13,45 -4,35 36,64l-4 -50c36,12 55,42 137,59 46,10 261,-74 279,-90 30,-28 96,-37 136,-51 7,-1 64,40 78,-8 -1,-11 2,-1 -14,-25 22,-20 16,-21 26,-35 -14,-28 -13,-8 -25,-33l25 -14 4 -42c19,13 22,27 24,50 2,-1 6,-2 16,-2 23,0 3,4 16,-6 -3,-2 -8,-15 -28,-4zm7242 663c1,0 3,-2 3,-1l27 -23c-43,14 -30,19 -30,24zm-8376 -463c0,2 21,20 13,-2 -6,-14 -13,-21 -13,2zm982 122c14,-6 25,4 14,-27l-14 27zm-167 248c16,-27 4,-17 0,-23 -8,12 -19,2 0,23zm7006 580c3,-7 16,17 2,-23 -9,7 -18,-4 -2,23zm99 -443c1,1 14,7 20,7 30,1 19,-5 25,-7l-45 0zm-6660 67c32,5 14,7 27,-12 -33,4 -16,3 -27,12 -71,-33 -73,0 -107,-28l41 0c10,-56 -9,-118 -13,-164 -2,-21 3,-38 0,-71 -5,-46 0,-62 -19,-81 -31,59 -3,119 -1,139 4,47 9,121 9,166l-31 -4c-16,-33 -10,-182 -17,-235 -14,-118 -23,-135 23,-216 -38,18 -2,4 -34,24 14,-40 23,-31 61,-32l3 41c19,9 5,-1 28,3 4,14 5,20 12,34 20,41 3,15 28,27 -12,-47 -28,-81 -55,-113l-45 -20c-17,22 -73,51 -70,128 18,-8 13,7 17,-26 5,61 2,153 12,208 10,59 3,128 9,203 48,16 89,38 142,30l7 -13zm2218 14c23,-9 14,-3 22,-25 -19,11 -12,0 -22,25 -21,11 -31,27 -36,49 23,-8 33,-21 36,-49zm5606 -583c4,1 -9,18 31,2 -10,-7 8,-3 -11,-4 -2,0 -17,1 -20,2zm-918 647c23,-14 17,-8 23,-25 -28,12 -11,-3 -23,25zm-7924 -420c20,-39 1,-21 0,-23 -7,15 -15,6 0,23zm2567 620c15,13 1,7 28,9 -2,-2 -1,-21 -28,-9zm-2557 -838c1,2 -6,19 25,4 -14,-11 -2,-12 -25,-4zm28 106c11,8 13,10 27,14 -6,-18 -14,-24 -27,-14zm8782 -79c31,-9 16,1 22,-16 -24,2 -20,-6 -22,16zm-1792 1035c10,-12 22,0 1,-25 -8,11 -15,1 -1,25zm-6756 -321l7 -10c-2,-19 2,-3 -7,-14 0,0 -23,3 0,24zm1624 273c31,-9 14,3 27,-18 -24,5 -24,-1 -27,18zm-1329 -915c-27,-14 -24,-11 -45,3l45 -3c12,33 -6,4 22,24 10,7 13,10 21,22l-14 14c-3,-29 -7,-57 -76,-33 -15,5 -11,2 -20,11 -6,5 -10,12 -11,16 -12,43 31,45 -19,85 -30,24 -15,-13 -24,18 -5,5 -14,11 -18,22 -12,28 1,20 3,23 7,-13 10,-28 15,-45l9 14c13,20 17,22 50,24 -12,11 -23,22 -35,31 8,76 16,92 4,183l51 3c15,-37 10,-171 2,-214l-22 -3c24,-13 12,9 29,-61 -6,-7 -16,-14 -15,-27 3,-42 -20,8 9,-17 15,7 7,2 15,14 10,14 3,9 15,24 33,-14 24,-21 43,-47 18,-24 30,-31 55,-37l33 28 3 -37c0,-1 1,-3 2,-5 -28,-31 -54,-53 -102,-63l23 36 -48 -3zm6861 536l36 -11c-2,-1 1,-8 -19,-3 -35,9 -11,6 -17,14 -9,-1 -27,0 -30,0 -17,-2 -7,-1 -16,-7 -18,29 15,-31 -7,14 -8,17 -1,12 -60,13 -9,-18 -10,15 0,-7l-22 -14c35,-31 43,-15 38,-62 45,9 52,0 105,0 -39,-15 -102,-4 -149,0 -14,1 -127,9 -127,9 21,30 42,14 82,10l5 12c-43,11 -74,26 -62,70l-36 6c16,30 46,4 85,-5l21 -3c2,0 16,1 19,1 -6,-4 -7,-5 -20,-8 -3,-1 -20,-2 -24,-2 16,-14 14,-1 13,-13l-46 11c-2,-40 21,-24 50,-57 17,-5 42,-15 65,-18 1,31 16,1 -43,42 9,17 17,21 17,21 9,17 4,-8 2,13l-8 12c79,-13 140,-5 175,-14l-50 -2 23 -22zm1221 149c-8,4 -4,-2 -16,7 -21,15 -6,1 -16,18 17,-7 19,-1 32,-25 24,-12 21,-20 61,-16l0 16c22,-8 7,-5 30,-15 -8,43 -19,16 -29,55 97,-60 11,-39 131,-57 -2,2 -4,4 -5,6 -1,1 -3,4 -4,5l-3 18c178,13 186,25 200,-22l29 12c20,-4 -10,-5 28,-8 11,21 1,7 22,27 94,-7 122,12 198,31 30,8 63,20 89,24 31,6 65,4 91,15 -8,19 -10,23 -34,32l15 -29c-56,-14 -226,-30 -284,-34 -94,-9 -187,-4 -296,-6 2,-1 4,-3 5,-3 1,-1 4,-3 5,-4l13 -8c-75,5 0,9 -133,6 10,-28 11,-10 8,-27 -25,14 -49,41 -99,21 -4,-15 0,-10 13,-30 -43,12 -23,30 -83,24 -35,-3 -55,1 -82,2 18,-8 7,-1 23,-12l45 -44 62 1 -13 16c0,-1 -2,3 -3,4zm-8075 -384c31,-5 25,7 12,-27 -6,14 -5,16 -12,27zm-1019 -467c32,-2 24,5 33,-22 -13,8 -21,11 -33,22zm762 1097c37,21 34,-9 35,-9l-35 9zm5158 -207c-16,3 -9,-11 -17,15 1,0 6,11 17,0 13,-13 5,-3 0,-15 24,1 7,8 36,-8 -5,-11 -6,-14 -19,-12 -16,3 -12,7 -17,20zm-106 237c7,-17 1,-18 -13,-24 -2,34 -15,17 13,24zm-4547 -697c6,-9 7,14 8,-23 1,-22 -2,-19 -8,-29l0 52zm-848 -292c-11,-21 4,-5 -11,-17 -9,-7 -10,-5 -24,-9 14,21 5,13 35,26zm6442 -1023c9,-5 12,-7 21,-16l16 -24c-21,18 -30,11 -37,40zm-724 1813c-11,2 -2,-7 -16,4 -20,16 -7,9 -15,22 29,-13 17,-4 31,-26 24,13 25,0 34,-28 -36,8 -23,-3 -34,28zm-5696 -196c21,9 19,7 36,-1 -11,-7 8,-7 -17,-7 -17,1 -12,0 -19,8zm1483 -140l-39 -13c4,5 8,13 17,17 34,16 15,1 22,-4zm-1866 -706c1,0 1,21 29,8 -5,-21 5,-15 -29,-8zm9004 213c38,-12 21,-2 25,-23 -25,7 -22,-3 -25,23zm-8833 497l2 22c40,4 7,1 22,-7 -15,-17 18,-4 -24,-15 -7,-12 5,-8 -8,-16 21,-16 21,-2 44,-25l-46 -1c-10,11 -25,24 -30,43 -2,8 -3,19 -1,28 7,29 14,19 20,24 25,10 -45,-9 14,-5 32,2 24,10 26,12 -10,31 -25,29 -14,57 33,-26 0,-20 37,-27l-7 30c31,-15 0,-20 38,-22 19,-2 17,10 46,2 1,-2 17,4 1,-34 -12,-29 -39,-31 -64,7l-14 17c2,-60 16,6 10,-114 -15,15 -21,41 -24,62l-35 4c-8,-59 -11,-26 7,-42zm-455 -52l13 -20c5,-8 7,-15 10,-21 -22,13 -32,19 -23,41zm7059 564c18,-9 26,-29 35,-43 -19,7 -4,-7 -20,14 -7,9 -11,19 -15,29zm-5226 -48c14,-19 12,-44 3,-69l-3 69zm2965 -105c30,-10 24,2 28,-26 -6,2 -10,0 -16,6 -17,18 2,-13 -12,20zm-1683 138c20,11 26,8 28,-20 -6,4 -7,2 -13,6 -15,10 -8,4 -15,14zm1258 -559c12,3 30,7 23,27 8,-15 2,-33 -7,-47l-16 20zm1948 -58l46 11c-20,-18 22,-4 -22,-16 -32,-9 -22,3 -24,5zm-5996 216c26,-13 15,-1 15,-28 -24,7 -26,7 -15,28zm1173 -189l-1 -65c-7,5 -10,-1 -11,15 0,10 1,9 3,19 0,3 9,30 9,31zm-1300 -346c24,-13 17,-13 25,-42 -16,6 -3,-11 -17,16 -6,11 -6,15 -8,26zm8369 506c12,9 45,7 56,-3 -25,-5 -38,-6 -56,3zm-7209 -122c10,-19 5,-15 1,-38 -11,14 -9,-17 -11,18 -3,36 3,13 10,20zm3836 -118c29,-15 8,-15 40,2 -1,-9 0,-11 -1,-17 -6,-21 -5,-15 -7,-18 -15,22 0,3 -15,17l-17 16c-26,3 -6,3 -13,-8l11 -35c-35,8 -3,7 -34,49 -20,-35 16,-45 24,-78 -62,27 -58,3 -101,19l31 -29c-115,35 -20,36 -95,82 8,-33 18,-34 29,-63 -27,9 -5,-11 -30,26l-27 29c11,-38 18,-26 25,-60 -38,4 -18,12 -45,44 -5,-23 1,-20 -19,-42 2,11 7,35 6,44 -3,35 1,20 -24,27 -42,-25 3,12 -21,-52 -10,-27 0,18 -8,-20 77,-14 36,0 54,-20l-68 4c-10,153 50,94 73,86 20,19 23,24 88,15 40,-6 9,-1 50,9 16,4 85,4 94,-27zm-213 410c5,-23 7,-36 -6,-56 -5,19 -6,40 6,56zm-62 235c15,-20 13,-25 10,-57 -12,20 -12,24 -10,57zm1916 -84c21,1 8,16 17,-7 10,-21 -4,-22 -5,-24 -24,24 -4,3 -12,31zm-6170 -859c19,-8 32,-21 44,-34 -19,3 -13,-1 -27,10 -25,19 -13,10 -17,24zm625 432c15,12 -7,4 15,9 1,0 27,1 29,1 -11,-14 -27,-27 -44,-10zm3018 334c13,-10 13,-1 18,-22 8,-38 -2,-18 -8,-25l-10 47zm-3635 -660c7,-14 2,-13 9,-24 9,-17 7,-7 20,-25 -27,10 -46,19 -29,49zm5631 660c27,-11 28,-7 38,-30 32,-5 12,0 32,-14 25,-19 17,2 23,-33 -32,10 -41,21 -55,47 -6,1 -19,4 -23,6 -25,16 -11,1 -15,24l-30 13c3,-42 9,-65 69,-104 3,-1 11,-6 15,-8 45,-27 28,-7 49,-23 -42,-32 -99,59 -140,70 -4,-40 -9,-18 17,-37 6,-5 30,-22 35,-26 17,-15 6,-14 23,-29 16,-14 20,-8 38,-23 1,1 3,2 3,4 0,1 3,2 3,2l11 -3c1,0 2,-2 3,-3 6,-6 0,-3 8,-8l-10 -9c-13,-18 7,15 -6,-9 -1,-1 -1,-3 -2,-4l-3 -13c-39,72 -1,1 -58,60 -22,23 -43,44 -68,56 -1,-35 -4,-15 59,-80 42,-44 77,-44 90,-61 -25,-15 -23,-3 -54,9 0,-44 8,-66 43,-77l-6 36c14,-14 19,-24 23,-44l-20 -11c-1,0 -4,-1 -5,-2 0,0 -3,-1 -4,-2 24,-40 9,-30 2,-41 -42,-5 -51,26 -74,35 -26,11 4,-18 -33,15l-37 22c-3,76 2,144 8,218 3,35 1,22 -5,50 -7,38 4,1 4,48 1,40 -7,67 2,111 37,-2 55,-33 67,-52 -23,8 -31,17 -45,28 -7,-31 3,-36 51,-79 16,-15 12,-2 22,-29 31,-1 20,-14 36,8l14 -31c-25,-1 -33,1 -50,23 -34,17 -43,38 -77,55 13,-48 20,-24 32,-55zm-5739 -688c-22,4 -22,5 -30,23 13,6 -1,10 24,2l6 -25c28,11 2,-3 30,25 -23,-67 -5,-50 -36,-54l6 29zm6462 -1009c2,-1 4,-6 5,-4 2,4 29,-26 41,-53 -20,12 -40,35 -46,57l-21 4 0 -35c-4,-14 -4,-13 -9,-19 -11,28 1,13 -20,28 8,-48 76,-123 119,-138 28,14 29,24 52,46 -12,40 -19,26 -29,53l-51 180c-3,-98 -5,-42 -29,-92l-12 -27zm1779 1464c-32,-1 -52,-8 -76,5 25,1 66,7 76,-5zm-8237 89l-28 -12c-20,-5 -21,-4 -41,-5l29 16c18,4 22,2 40,1zm9156 -410c-3,-28 -5,-26 -27,-35 3,28 2,28 27,35zm-8500 218c11,-3 10,0 17,-7 22,-22 8,3 13,-30 -33,14 -18,8 -30,37zm8841 582c-7,-45 -2,-37 -39,-38l39 38zm-5084 -418c27,-34 34,-19 40,-47 -23,10 -41,16 -40,47zm4402 -572c18,-9 5,-1 18,-11 11,-9 17,-14 24,-24 -63,14 -42,28 -42,35zm-47 -48c16,-2 9,4 23,-6 2,-1 3,-2 5,-4 1,-1 3,-3 4,-4 9,-11 1,-3 11,-19 -33,10 -29,8 -43,33zm-1050 622c-38,-25 -11,-3 -3,-40 -21,11 -26,12 -33,38l36 2zm-2292 195c6,-9 9,2 9,-19 0,-31 -9,-21 -9,-22 -17,27 -20,23 0,41zm-5308 -774c21,-4 47,-15 61,-35 -30,7 -49,15 -61,35zm8382 -33l33 -12c16,-9 5,12 16,-22 -56,19 -42,22 -49,34zm-5831 1019c27,-8 33,-36 20,-57l-20 57zm1351 -350c32,-13 39,-33 69,-44 -38,4 -55,16 -69,44zm-3341 -412c22,-5 10,3 28,-9 16,-11 7,-7 19,-22 -32,7 -30,0 -47,31zm6946 492c16,-7 9,-4 19,-15l-81 26c-20,11 -10,6 -19,14l81 -25zm-5920 181c11,25 -17,-21 6,7 22,26 -10,9 13,38 17,-52 -14,-36 13,-65 -25,8 -20,1 -32,20zm-1934 -925c20,-4 8,7 20,-10 0,-1 10,-31 11,-33 -21,12 -41,12 -31,43zm2170 804l1 11c-29,6 -8,-2 -37,-3 -19,0 -28,6 -45,11l5 -25c48,-10 33,-2 76,6zm-1751 -207c8,-10 15,18 10,-31 -2,-21 -9,-21 -16,-28 -10,17 2,33 6,59zm1784 102c3,-10 6,-8 3,-26 -4,-26 -7,-19 -12,-24 -5,6 -13,-2 -8,28 5,34 7,16 17,22zm6219 -247c35,3 57,-5 82,-17 -33,-13 -18,14 -36,-18 -3,5 -4,8 -7,16 0,2 0,7 -1,10 -49,2 -32,5 -38,9 -33,-2 -59,-7 -90,-7 -43,0 -68,4 -93,-9 11,-8 -1,-2 17,-9 83,-31 35,14 90,10 25,-3 19,-13 45,-15 15,-1 25,10 39,-7 8,-10 4,-2 0,-11 0,-1 -3,-5 -3,-6 -1,0 -2,-2 -2,-3 -1,-2 -2,-3 -3,-4 -22,17 -60,43 -95,30 18,-45 35,-15 48,-51 -25,6 -92,47 -116,37 19,-13 22,-7 35,-15 21,-11 17,-24 25,-28l171 -6c37,-2 37,-12 39,-13 -61,9 -129,2 -190,3 -55,0 -104,14 -158,18l-8 17c-1,1 -14,10 -19,16 8,11 3,3 12,21l60 -21c-30,0 -34,10 -50,0 35,-25 65,-28 117,-30 -12,24 -25,21 -61,23l-2 50 -161 2c4,3 -3,4 14,6l135 5c118,8 41,0 76,57 9,-16 4,-8 4,-26 -2,-63 74,-8 124,-34zm-8364 165c11,-2 21,-2 27,-3 29,-5 18,-3 30,-13l-56 -10 -1 26zm1186 -655c20,-15 19,0 12,-35l-20 -4c-2,5 -12,-2 -6,22 6,27 3,9 14,17zm360 765c-29,-28 -40,-30 -73,-25 21,20 41,21 73,25zm-268 -548l1 61c14,-6 20,3 19,-29 0,-18 -6,-22 -20,-32zm-1568 -192l40 10 10 -45 -50 35zm3120 881c1,-1 14,4 13,-24 -1,-22 -11,-18 -21,-22 -14,23 -6,28 8,46zm605 111c13,7 23,6 43,9l24 5c1,0 3,-1 4,-1l9 -5c-22,-16 -54,-22 -80,-8zm498 -349c-21,-30 -61,-51 -97,-48l97 48zm1883 200c10,-25 9,-54 -8,-74 -7,18 -12,58 8,74zm-1407 -541c20,-10 4,-3 18,-12 9,-7 4,-4 10,-7 2,-1 12,3 21,-22 -34,-14 -41,8 -49,41zm1587 -40c31,0 36,21 50,-28 -11,2 -20,2 -31,7 -32,14 -13,8 -19,21 -27,1 -16,0 -33,12 26,-28 3,-23 3,-35 15,-14 18,-24 44,-22l30 12c2,1 4,3 6,4 0,-42 -7,8 1,-12 5,-14 4,-10 10,-18 14,67 -11,73 14,110l-5 9c-1,1 -3,4 -4,5l-9 11c34,-2 37,2 70,9 15,3 37,7 51,-3l-83 -13c21,-33 5,5 46,-24l26 18c19,-14 23,-16 53,-27 -11,-12 -15,-21 -21,-39 -2,-7 -1,-5 -4,-11l-4 -11c-11,-17 3,-7 -19,-14l16 -11c1,-1 4,-3 5,-4 -5,-5 -16,-3 -15,-26l32 -1c18,37 6,62 17,101 19,65 21,23 4,99 25,30 12,3 14,38 0,29 8,26 13,42 4,11 -5,92 -3,117 2,40 14,65 13,99 -2,47 -6,51 7,104 -19,29 -67,89 -97,94 -10,-36 -2,1 16,-40 -16,-12 -10,-6 -26,-14 16,-12 33,-18 30,-31 -7,-4 -3,-5 -17,-7 -35,-7 -39,8 -68,15 6,-8 3,-6 12,-13 4,-3 9,-6 14,-9 94,-64 49,15 87,-40 -23,-47 -28,38 -28,-98l-29 -17c19,-1 19,5 38,-6 4,-18 -3,-30 -7,-50l-26 5 8 -5c0,0 3,-2 3,-2 1,0 3,0 4,-1 1,0 6,-1 8,-2l10 -5c-7,-30 1,-52 4,-71 4,-29 -12,-36 -23,-47 -20,-18 -20,-13 -30,-32 18,5 29,6 51,-5 -98,-19 -175,-4 -186,-8 -25,-9 -10,4 -12,-18l-23 34 102 -8c-14,18 -31,24 -50,35 -2,1 -7,3 -9,5 7,47 -4,49 19,82l-6 -67c19,8 15,18 37,17l-2 26c2,23 -3,34 12,57l-11 10c-8,9 -5,5 -11,12 21,28 17,43 15,74l3 21c1,2 6,9 8,11 -22,6 -10,-3 -24,14 27,32 -12,17 26,37 -16,10 -12,1 -11,21 0,2 1,4 1,6 0,1 1,4 1,5 3,36 1,60 -14,88 -16,30 -17,28 -10,67l18 71c-11,8 -16,12 -13,41 15,8 21,-1 27,20 -37,13 -93,13 -132,6 -129,-20 -62,-34 -120,-32 5,-52 -9,37 4,-12 8,-31 3,25 2,-11 0,-14 -5,-25 -8,-33 -13,5 -19,6 -24,19 -8,18 5,24 7,27l-28 28c-57,-2 -117,-4 -173,-4 -171,-1 -146,35 -204,-26l2 -82c-40,13 -32,77 -23,105 -21,2 -32,4 -53,4 -39,1 -9,4 -47,13l-15 -45c-14,38 0,17 0,46 -19,-12 -6,12 -17,-25l0 -102c1,-28 -7,-41 -2,-70 10,-57 5,-100 -7,-155 -3,-16 5,-8 -2,-30 -11,-30 -58,-70 -90,-72 1,27 -1,15 25,33 -33,0 -19,-5 -42,-18 -58,-7 -99,86 -93,141 2,1 4,1 4,3 9,29 0,-2 21,5l12 27c8,24 1,30 -8,48 14,5 9,13 22,-4 4,28 -2,55 -25,72 33,27 16,30 18,67 0,2 1,4 1,6l-6 31c-6,24 10,15 1,36 -32,-12 -20,-11 -19,-57 0,-28 1,-47 -8,-73l-4 130 -129 8c-38,5 -95,8 -126,-4l53 -20c1,-12 0,-18 5,-33l-24 -26c13,-8 16,-11 31,-21l32 -32c1,40 -21,53 -13,91 20,-3 9,0 20,-17 4,22 14,30 29,40 9,-11 19,-5 -6,-27 -2,-1 -5,-3 -6,-4 -1,-1 -4,-3 -6,-4l13 -43c11,13 15,31 18,44 14,57 7,38 27,48 22,-10 27,16 22,-72 -1,-32 -7,-48 -7,-83 0,-56 10,-124 6,-166 -8,-94 83,-176 167,-201l66 53c26,25 23,48 57,62 4,79 29,170 27,252 -1,30 -6,69 8,89 25,-17 18,-24 20,-59 1,-53 24,-86 -5,-214 20,-10 27,-19 37,-40 -20,11 -21,16 -43,28l-6 -22c16,-19 37,-34 67,-40l2 45c3,15 10,10 12,47 -1,1 -3,0 -3,1 -7,32 -5,-1 -5,-1l-6 0c0,0 -2,0 -3,0 -6,28 -6,149 5,178 53,-12 8,-139 40,-329l-28 -24c16,-20 14,-50 15,-75l32 9c-2,31 -8,36 -4,68 4,39 20,42 -3,65 47,8 40,-27 83,-43 -25,32 -69,49 -67,79 29,-8 74,-67 119,-86 14,18 11,28 25,45l-10 36c46,4 19,-25 17,-62 -1,-7 13,-57 15,-84l16 40c7,-42 -16,-71 -13,-133 11,-5 11,-1 23,-19 27,5 132,-9 148,-33 -30,-9 -39,6 -83,2l67 -10c-8,-23 1,-10 57,-8l-47 -13c-24,-3 -45,-1 -68,-2l2 -120c-66,-9 -74,-33 -61,82 0,0 -10,-4 8,25l10 -38c17,12 16,13 36,18 -10,26 -17,8 -20,28l25 5c-20,37 -79,27 -127,19 0,2 -2,2 -2,5l-9 15c-1,1 -3,3 -4,4 -38,-23 -83,0 -122,1 -38,1 -26,3 -29,-22l10 -4c69,-14 87,4 127,-18 -37,-25 -113,0 -127,-4 29,-17 70,-9 89,-10 46,-2 21,-2 28,-10 27,-6 22,-5 37,-24 6,-8 9,-14 12,-18l15 -19c9,37 -25,33 -33,79 37,-8 22,-10 60,-61 -9,-22 -15,-10 -6,-46l-25 -23c25,-11 51,-6 93,-22 1,2 3,2 3,4 7,32 82,9 133,0l-29 35c-13,17 -20,20 -26,42 32,-16 37,-54 81,-70 50,-20 89,-15 147,-11l-5 26c-17,-2 -62,-9 -70,-8 -28,5 -8,21 -62,7 -2,-1 -4,-2 -7,-2 -22,25 -55,36 -71,74 2,4 16,17 16,17l10 22c10,15 -2,2 57,9 15,-35 25,-29 48,-54l6 22 -35 14c44,17 67,-21 82,-36zm-4991 596c8,-21 2,-62 -2,-90 -21,30 -7,75 -5,79l7 11zm1642 -839c44,-15 23,2 32,-22 -21,-34 -1,-5 -35,-20l3 42zm4716 935c7,-42 21,-36 11,-80l-24 58c-1,37 6,16 13,22zm-3704 -165c18,-27 11,-36 10,-72 -11,11 -25,19 -17,56 3,13 4,11 7,16zm-4209 -987c24,-23 42,-42 49,-80 -30,18 -40,46 -49,80zm4972 1135c27,3 31,-9 51,-21 33,-21 27,4 43,-27 -25,1 -76,29 -94,48zm-365 -103l19 -20c20,-30 0,6 6,-9 6,-14 5,-20 -1,-35 -25,11 -27,28 -24,64zm-4335 -941c31,-15 17,-20 39,-39 23,-22 20,-4 39,-42 -33,18 -68,46 -78,81zm3003 999c2,-8 5,-16 4,-28 0,-24 -2,-19 -12,-29 -18,19 -28,44 8,57zm-2411 -347l13 -17c1,-1 3,-2 4,-3 -17,-18 -15,-24 -35,-38 -30,33 3,12 18,58zm9256 310l-82 54c-3,1 -12,9 -14,10 -1,2 -3,3 -4,5l-11 12c45,-13 54,-36 88,-58 27,-18 16,-8 23,-23 36,-8 4,-10 46,-18 -25,47 -58,37 -78,84 32,-12 8,0 24,-13l53 -45c-6,15 -23,29 -34,42 -19,21 -27,16 -44,45l42 -24 7 19c36,-4 30,-18 60,-37 -12,35 -29,14 -22,37 3,2 -7,13 15,3 23,-11 0,-4 16,-15 12,-8 19,0 47,-9l1 29c30,-4 24,0 41,-17 19,23 4,25 60,1 1,2 2,3 3,6l13 26 46 -15c-11,-6 -2,-4 -21,-4 -19,-1 -1,10 -22,-3 19,-14 36,-3 66,-12 11,-22 4,-32 5,-60 6,8 5,2 11,17 13,30 12,51 9,81 38,20 41,33 105,32l-43 17 0 53c-53,-2 -96,-9 -156,-8 -56,1 -111,-2 -166,-1 -110,1 -228,6 -337,4l16 -13c19,-20 8,-25 43,-61 -7,-6 14,-16 -21,-10 0,0 -3,1 -3,1l-7 16c-30,-17 -2,-5 -31,-21l-19 19c-12,4 -9,-3 -25,-8 -21,24 -11,14 -34,24 -1,-35 -4,-25 24,-40l-162 -7 32 19 -21 47c-31,6 -4,-4 -32,12 24,-43 32,0 30,-61 -23,2 -16,2 -42,-2 -17,34 -10,20 -24,29 11,-29 6,-37 25,-51 -50,-7 -173,-1 -186,-3 -29,-5 -32,-7 -63,-7 -61,-1 -119,-13 -183,-17 -9,-1 -22,0 -29,0 -4,-1 -12,-1 -15,-2 -18,-4 -11,-5 -18,-10 45,-16 106,8 154,12 48,4 238,-9 340,-3 53,3 90,22 158,21 46,-2 297,10 334,20 54,15 209,15 287,25 53,7 27,0 38,-9 -20,-4 -47,-12 -71,-13 -134,-6 -168,12 -294,-31 -24,-8 -20,5 -68,7 -64,2 -101,-6 -163,-9 29,-44 14,-18 30,-21 18,-2 23,-8 43,-17 1,1 5,5 13,10 -2,30 -2,8 9,17 49,-21 78,-82 112,-56 -26,18 -51,30 -66,55 23,-8 52,-35 71,-49 65,-47 28,-44 84,-53l-13 25zm-5263 195l-11 -49c-19,4 -26,2 -26,21 0,20 16,21 37,28zm-2676 -160c22,-20 10,-12 23,-40 8,-16 15,-23 22,-37 -20,7 -24,8 -36,30 0,0 -9,19 -10,22 -6,20 -2,19 1,25zm1156 -377l-3 -24c-44,8 -7,-6 -37,20 -12,10 -28,16 -25,29 3,14 22,-11 25,-13 28,-28 4,-10 40,-12zm3116 469c-11,27 -2,9 -16,16 35,39 16,41 43,34 10,-24 -21,-45 -21,-46 -1,-3 -4,-2 -6,-4zm-620 -126c14,-22 10,-62 7,-99 -1,-3 -2,-18 -3,-21 -4,-15 -3,-10 -9,-18l5 138zm-4781 -345c-12,-20 -11,-11 -14,-28 18,-9 18,-9 25,-24 -52,-4 -69,40 -11,52zm3481 276c22,-15 6,-3 21,-27 9,23 4,18 24,30 -1,-8 -3,-24 -7,-31 -14,-27 2,-8 -23,-19 -22,29 -16,23 -15,47zm-3850 92l43 -6c-5,-12 -23,-43 -33,-50l-10 56zm-158 -799l18 29 21 -13c-11,-23 1,-11 -20,-21 8,-22 7,-13 16,-33 -25,9 -28,15 -35,38zm3918 353c24,-9 8,-13 30,-31l19 24c1,2 3,4 4,6 -4,-90 -64,-30 -53,1zm-2203 384c-6,26 -1,10 15,33 16,21 3,17 24,33 12,-24 -13,-70 -39,-66zm2446 219l-2 -112c-17,20 -16,55 -12,84 7,46 0,16 14,28zm4905 -975c38,-21 42,-8 46,-50l-35 3 -11 47zm-5729 291c31,-24 18,-34 52,-54l-7 30c-31,13 -12,25 -56,57l11 -33zm45 -24l45 -43 -89 142c-3,-55 27,-55 44,-99zm-1054 461l113 12c36,5 13,-7 26,14 24,-33 -23,-19 -41,-21 -34,-6 -63,-25 -98,-5zm1634 -225c10,-15 11,-18 11,-47 0,-1 -1,-22 -1,-23 -6,-39 2,-6 -9,-23 -24,15 -13,14 -8,40 3,19 3,36 7,53zm1959 349c7,6 -18,27 28,8 19,-8 -5,-18 47,-24 13,-2 9,3 18,-7 -4,-4 9,-27 -46,3 -20,11 -27,14 -47,20zm-4359 -118l-11 36c19,-18 13,-17 39,-26 27,14 18,17 46,31 -7,-29 -3,-27 -29,-37 -11,-4 -36,-10 -45,-4zm1232 94c3,-2 32,1 15,-49l-26 -1c-10,47 3,41 11,50zm-2051 64l10 -67c-3,-51 2,-8 -10,-28 -3,6 -6,6 -10,21l-2 53c4,21 3,12 12,21zm-509 -1013c17,-3 16,-9 38,-19 -10,58 -18,11 -28,59 34,-17 49,-23 32,-67 -27,0 -36,6 -42,27zm65 508l-3 10c0,1 -3,4 -4,5 -1,1 -4,3 -6,5l47 4c1,-13 1,-2 -13,-9 26,-7 13,-4 27,-15 -43,-11 -31,-18 -83,-10l35 10zm274 -247c18,20 42,44 50,-11 -26,-13 -38,-17 -50,11zm6549 106c4,-4 6,-4 10,-14 13,-29 5,-32 2,-44 -44,2 -38,35 -12,58zm-1633 428c17,2 5,9 30,-3 8,-4 3,-3 9,-7 1,-1 3,-2 4,-3 16,-13 40,-26 50,-44 -30,3 -74,38 -93,57zm-4233 -806c2,-3 18,6 -2,-50 -8,-23 -8,-31 -33,-30l24 62c12,32 1,6 11,18zm1275 946c19,3 26,-5 55,1 27,4 40,12 64,5 -21,-6 -114,-49 -119,-6zm-2494 -331c-7,-22 -16,-33 -23,-51 -12,-29 1,-31 -25,-43 0,0 -17,0 -7,29l55 65zm-237 -52c2,3 4,2 5,5 4,12 20,-7 32,29 9,28 -3,27 16,50 11,-37 1,-59 -10,-85l-43 1zm118 -623c32,-9 17,-8 45,-35 20,-20 16,-11 30,-10 13,2 0,4 10,-1 -15,-16 -18,-14 -36,-27 -8,12 -10,23 -22,36 -22,23 -19,1 -27,37zm5960 613c38,-21 36,-54 101,-76 1,-1 3,-1 4,-2 -43,-19 -96,44 -105,78zm-4225 277c13,4 115,25 137,15 -26,-13 -107,-30 -137,-15zm5507 -619l-13 40 38 -6c9,-2 3,1 12,-4l0 -29c-23,-9 -15,-11 -37,-1zm-7223 407c-18,8 -8,-7 -23,24 -10,21 -9,22 -4,41l35 8c-12,-53 -11,18 -8,-73 18,-11 6,-2 22,-7 30,29 30,34 32,60 -20,15 -10,11 -33,15l31 13c6,-13 1,-7 15,-12l-8 -53c-4,-16 -13,-27 -19,-39 -32,3 -32,1 -40,23zm2506 185c26,15 83,13 122,15l-33 -15c-57,-11 -68,-16 -89,0zm-2642 -323c-16,13 -4,15 -11,30 -2,6 -17,20 -26,36 42,-21 22,-31 73,-22 -11,-20 -13,-2 -3,-34 -44,0 -12,1 -33,-10zm2109 485l62 8c-22,-21 -15,-21 -14,-37l-35 -5c-14,16 -19,15 -13,34zm1934 -131c17,-4 12,1 24,-24 16,28 -3,11 20,29 3,-16 7,-26 1,-47 -3,-14 -5,-12 -9,-18 -10,9 -14,16 -22,26 -15,18 -13,6 -14,34zm3944 -162c41,-17 36,-19 47,-39 -47,18 -47,5 -57,30l-3 12c-2,10 -2,12 -4,24l53 -15 -36 -12zm325 207c7,-24 29,-23 27,-40 0,0 2,-28 -28,14 -10,13 -13,17 -16,36l75 2c-14,-29 17,1 0,-17l-58 5zm-7536 -345c-10,17 -8,15 -4,36 1,0 4,-3 4,-2 10,26 -6,-15 25,-2 -13,31 0,2 -29,23 17,14 16,11 39,4 1,-16 7,-38 -20,-57 -9,-6 6,-7 -15,-2zm3499 166c19,-12 16,-51 12,-79 -6,-39 -6,-18 -12,-25 -13,26 -9,81 0,104zm-4379 -62c-25,-3 -25,-9 -44,3 28,19 33,24 53,16l22 -72 -25 19c-8,13 -5,17 -6,34zm1461 4l-7 -126c-19,19 -7,1 -15,26l-5 19c-2,12 -4,11 0,25 10,27 8,-6 16,25 6,21 -11,7 11,31zm332 89c30,25 76,19 113,17 -23,-24 -87,-29 -113,-17zm185 251c43,2 37,10 62,-17l-21 -15c-18,-11 -9,-9 -31,-16l-10 48zm6380 -344c1,-1 2,-3 3,-4l7 -14c-50,0 -3,-8 -32,19 -7,7 -14,10 -18,13 -11,10 -2,1 -11,13 37,29 55,3 88,-14l-56 12 19 -25zm-4504 -245c0,0 1,0 1,1l46 41c0,-2 5,-17 5,-17l11 -14c1,-1 4,-3 5,-5 -32,-12 -15,-17 -48,-26l-20 20zm193 435c18,-18 22,-36 31,-59 17,25 -6,17 22,31 9,-22 8,-21 -2,-43 -27,1 -47,20 -55,47 -12,40 0,18 4,24zm128 -220c7,-19 5,-25 6,-50 1,-7 3,-25 3,-31 -3,-38 1,-10 -8,-22 -28,18 -20,9 -15,53 3,33 -4,36 14,50zm378 21c34,7 1,21 30,34 9,-17 8,-28 11,-50 3,-35 0,-28 -19,-36l-4 12c0,2 -2,11 -2,13l-16 27zm-4212 -495c19,11 10,6 33,-5 -7,40 -22,7 -16,44 6,3 -13,18 25,2 18,-16 1,-49 -8,-67 -26,5 -22,5 -34,26zm2651 780l14 -16c18,-21 98,-18 128,-21 -32,-16 -90,5 -139,-10 -4,8 -11,19 -11,24 -3,37 0,12 8,23zm1549 -416c25,14 19,6 37,2 50,-11 85,0 112,-28 -28,3 -50,6 -77,9 -60,6 -53,-3 -72,17zm-1632 582l6 -10c16,-25 32,-36 16,-81 -16,5 -24,4 -29,62 -2,26 2,21 7,29zm2879 -317c35,-7 29,-10 45,-26l16 -14c66,-54 52,-3 52,-50 -12,6 -14,7 -29,13 -32,15 -6,-2 -28,25 -24,31 -33,5 -56,52zm-5883 -190c6,-76 -2,-85 19,-98 -15,-30 -3,-46 -7,-82 -23,17 -17,6 -17,82 0,33 -3,69 5,98zm3978 211l13 31 27 -19c1,-1 3,-3 5,-4l-7 -52c-28,11 -30,14 -38,44zm-3253 -542l-17 43c5,1 8,-3 9,-2 3,5 2,-8 19,-9 10,-1 5,1 19,10l2 -55c-30,-13 -17,-18 -49,-7 26,16 9,-2 17,20zm5375 643c54,-21 -13,-9 99,-64 16,-8 18,-16 22,-27 -41,-5 -42,17 -65,36 -10,8 -18,11 -30,22 -29,26 -15,4 -26,33zm-3219 -13c16,15 -15,6 28,14 -19,8 -4,-6 -15,16 22,39 3,43 9,84 16,-26 12,-69 24,-104l-21 -23c-3,1 -25,12 -25,13zm-1304 -178l10 5c20,2 2,1 16,-1 55,-5 97,7 115,-4 -12,-10 -113,-32 -141,0zm6816 177l-17 -19 -7 26c-28,2 -22,-3 -40,10 51,5 105,2 158,3 -20,-18 37,-8 -62,-13l-32 -7zm-4070 -237c9,-8 11,14 14,-53 1,-39 8,-34 -14,-54 -4,6 -4,0 -9,22 -7,28 -5,63 9,85zm-248 -19c15,-19 18,-141 -1,-170 -1,36 -14,149 1,170zm-2519 441c16,-27 4,-106 1,-143 -8,8 -13,8 -14,29l0 97c9,33 -1,5 13,17zm3383 -151c-20,11 -96,36 -116,73 15,-4 75,-45 96,-58 13,4 4,-1 17,6l10 8c2,0 4,2 6,4 -1,-51 7,-63 -10,-89 -13,19 -10,21 -3,56zm-679 111c21,-14 18,-39 22,-68 6,-39 7,-57 -19,-72l-3 140zm4107 -518c25,12 35,-3 66,-11 1,1 4,2 4,5l18 17c24,-3 27,-6 43,-15 -4,0 -21,4 -21,4 -33,-2 -16,-3 -24,-8l34 -20c-26,-21 1,-17 -45,6 -14,7 -37,11 -59,12l20 -26c-32,11 -37,7 -36,36zm-4197 -71c-20,-17 -15,-4 -30,-27 4,-44 16,-43 37,-17 4,-28 5,-23 -12,-42 -26,6 -6,-8 -25,18 -29,41 -41,84 30,68zm-2614 424c10,-20 10,-139 0,-161 -22,28 -15,130 0,161zm-430 -249l-16 -30 -22 22c-9,-15 -10,-6 -3,-30l4 -12c5,-25 -60,-7 -40,31 13,23 46,22 77,19zm7344 19c6,3 11,5 19,9l18 19c-11,30 -6,18 1,43l39 -5c-2,-1 -4,-2 -5,-2l-25 -14c53,-69 41,-12 66,-44l-113 -6zm-3966 418c12,-24 9,-78 3,-104l-24 -13c-8,16 -5,95 21,117zm-3195 -746c52,10 22,3 57,-20 -7,-32 -10,-35 -36,-42 -20,19 -26,37 -21,62zm5609 31c1,1 3,0 3,1l16 82c6,-7 5,0 6,-13l1 -76c1,-32 2,-77 -8,-101 -13,15 -9,1 -9,47 -1,28 -3,47 -9,60zm-4742 639c55,-18 5,12 62,-2 2,-37 -2,-41 -32,-49l17 -24c-41,10 -45,36 -47,75zm2004 39c17,-13 14,-43 15,-75 1,-41 4,-65 -18,-86 -5,21 -12,142 3,161zm-619 84c38,29 144,-1 165,-10l12 -7c-49,-3 -78,1 -117,15 -8,-23 14,-7 -22,-18l-38 20zm619 -512c10,-27 18,-114 8,-143 -1,1 -3,2 -3,4 0,0 -44,49 -15,126 6,13 6,8 10,13zm-1000 51l-18 20c15,-36 -6,-4 18,-20zm-2624 30c-2,-34 -2,-38 26,-23 -1,2 -3,4 -4,5l-22 18zm-18 -755l38 -10 -3 -51 -39 -13c-19,40 -23,48 4,74zm1675 1116l-19 -20c-11,28 -15,58 -5,84 21,-8 2,8 23,-24l18 13 7 -83c-29,15 -10,1 -24,30zm1919 -488l-16 32 36 0c-6,-111 10,-96 -43,-111 2,13 3,40 4,49l10 21c1,2 3,3 4,5 1,1 4,2 5,4zm-2760 583l48 0c0,-53 39,-86 -16,-109l-10 65c-12,37 -2,26 -22,44zm1216 -242c43,-4 21,-10 70,-18l12 99c10,-9 8,5 11,-15 2,-11 0,-12 0,-22 -4,-62 -12,-50 22,-74 -48,-4 -104,-19 -115,30zm5664 -424l40 10c-31,13 -58,22 -52,55 29,12 29,6 58,-1 -14,-11 3,-5 -19,-8 -2,0 -10,1 -12,1 -13,-2 -7,-1 -15,-4 19,-37 6,6 49,-48 1,-1 2,-3 4,-4l140 2c-52,-20 -141,-20 -193,-3zm-7518 7c-28,12 -55,-4 -73,6 33,18 54,21 87,4 5,-34 7,-98 -6,-124l-21 60c-5,35 2,27 13,54zm-51 -111l-7 101 34 -12 3 -102c27,3 20,9 41,-1 -20,-13 -17,-9 -48,-8 -17,25 1,8 -23,22zm3736 702c22,-6 31,12 32,-71 0,-53 -7,-64 -30,-75l-2 146zm-291 -176c0,18 13,106 22,117 24,-21 17,-104 18,-145 -25,10 -19,8 -40,28zm613 -72c2,-46 3,-93 4,-139 0,-28 0,-55 2,-83 1,-12 2,-19 4,-32l6 -33c-24,-10 -10,-7 -36,-12 16,34 18,18 13,63 -5,47 -8,209 7,236zm-4495 -290c0,1 2,1 2,3l26 45c-15,-9 -10,-4 -22,-17 14,30 41,52 67,71 38,-41 28,-34 52,-75 -44,14 -37,20 -68,39l-42 -77c0,-1 -1,-3 -1,-4l-14 15zm3831 611c15,-37 6,-170 5,-211 -51,26 -8,103 -14,151 -11,87 -5,48 9,60zm-998 -113c18,11 75,7 98,6 29,-2 86,4 102,-6l-43 -10c34,-12 18,8 21,-16 -42,6 -55,5 -95,7l-60 7c-25,4 -10,-2 -23,12zm-3072 -840c-19,-5 3,-2 -25,-4 -6,32 -11,29 6,60l14 -39 21 100c16,-26 9,-105 4,-145 -3,-23 4,11 -3,-14l-6 -12c-5,8 -6,-1 -10,26 -1,5 -1,22 -1,28zm2907 682l-85 -30c-17,-8 -9,-6 -21,-19l-102 -15c13,15 19,21 44,29l133 44c38,2 23,-3 31,-9zm5760 -11l-36 12c15,9 6,3 13,20 5,9 -12,39 74,7 64,-23 45,-13 55,2 -8,12 1,6 -16,15 0,0 -15,5 -20,7 17,10 17,4 37,2 52,-3 96,3 108,-50l-24 37 -81 1c35,-26 13,-14 12,-19l-10 -26c-11,0 -84,29 -121,33l9 -41zm-63 -124c43,-1 205,4 218,-29 -103,25 -122,12 -213,11 -7,-18 -2,-18 -16,-35 -12,47 0,100 22,133l-11 -80zm-8426 -85c14,12 7,12 24,19 -13,9 -19,8 -24,-19zm17 -11c-17,-1 -9,0 -24,-10 -36,64 -43,72 60,75 -5,-18 -11,-10 7,-13 -44,-61 3,-23 -31,-73 -1,2 2,11 -12,21zm881 381c44,33 41,5 37,-98 -2,-42 8,-33 -24,-41l-13 139zm-809 -911c18,17 18,18 9,37l-8 8 -1 -45zm29 -24c-25,17 -15,5 -22,-2l22 2zm-54 76c5,2 5,4 16,5l59 -8c4,-40 1,-14 -24,-43 11,-27 25,-37 -11,-58 -12,30 -11,16 -27,47 -14,27 -21,31 -13,57zm952 459l20 -13c1,-1 4,-3 5,-5 -41,-1 -38,-4 -59,21 13,19 -6,10 26,16l-37 15c40,6 69,-20 127,-21l-20 -7c81,-30 90,-7 94,-5 2,1 5,3 7,4 -9,-72 -13,-15 -163,-5zm3259 83c3,-61 -10,-94 6,-151l11 31c3,14 0,15 5,30 3,-3 6,1 11,-12 8,-21 -2,-48 -9,-72 -75,31 -45,158 -42,162 9,16 0,5 18,12zm-2378 419c13,-16 8,-4 10,-34 13,12 16,19 42,12l6 -75c-26,-1 -28,5 -36,5 -1,0 -15,-14 -26,6 -12,23 -12,70 4,86zm-1437 -343c1,1 3,0 4,1l24 3c1,0 4,2 5,2 1,1 4,2 6,3l-2 61 -28 21c0,0 2,-1 3,2 1,2 4,2 5,2 15,9 2,-3 15,8 19,18 0,46 12,75 10,-15 6,10 11,-27 6,-34 -13,-44 15,-68 -30,-17 2,2 -14,-15l22 -75c-36,-3 -58,-11 -78,7zm1036 -181c10,-7 22,4 23,-45l-14 -157c-10,-28 1,-9 -18,-14 -22,25 -1,67 4,103 5,42 -1,76 5,113zm1428 279c4,4 3,7 13,11 18,7 40,-3 58,-5 21,-2 21,-7 34,-8 8,0 26,3 42,0 -33,-21 -7,0 -19,-41 -51,-7 -101,15 -128,43zm1132 -250c13,-63 1,-104 11,-161 4,8 11,18 23,24 1,-28 -2,-38 -20,-51 -49,16 -41,107 -35,144 5,33 -1,30 21,44zm-2496 422c8,-22 6,-205 -8,-232 -54,11 -11,71 -6,173 3,90 0,46 14,59zm-1278 -1159c59,-26 26,24 38,-17 5,-17 -10,-33 33,-35 61,-4 62,44 70,95 11,1 13,0 20,0 36,1 -5,6 55,19 -15,-29 -24,-35 -55,-48l-26 -71c-65,-5 -116,-25 -135,57zm3813 1248l164 -2c-7,-12 -10,0 -30,-38 -45,-5 -72,-11 -116,2l-18 38zm5571 11c70,-16 58,-42 75,-59 7,6 15,12 20,16l-38 44c29,-12 62,-33 70,-64l-135 -7c-33,0 -28,0 -41,9 15,20 0,14 36,11 -15,35 -6,28 -3,33 35,-29 1,-32 43,-24l-27 41zm-8832 -114c0,1 -5,26 37,-14 0,-32 1,-65 0,-97 -3,-57 -9,-56 -39,-63l2 174zm-644 -550l30 14c12,3 21,3 35,4 -24,3 -23,0 -39,15l223 6c-15,-25 -13,-18 -48,-24 -42,-8 -173,-25 -201,-15zm3946 445l7 151c59,4 39,-30 38,-91 -1,-76 -6,-64 -22,-64l-23 4zm-3768 -898l2 31c-7,-8 -12,22 -9,-15 2,-22 0,-8 7,-16zm-79 41c18,10 36,23 66,25 35,-33 26,-14 33,-82l-48 -10c-15,7 -36,8 -40,21 -10,25 10,-19 3,16l-14 30zm8188 987c25,-11 21,-14 87,-1 49,9 25,8 39,-5l-129 -23 -23 21c-34,-6 -16,5 -22,-15 -54,0 -14,16 -91,28 -18,-21 -30,-27 -73,-21 5,34 -8,19 28,29 50,14 166,-6 184,-13zm-8099 -454c34,14 8,-15 38,12 16,13 17,25 39,36 -5,43 -19,46 11,66 10,-12 4,4 10,-17 8,-33 -9,-25 20,-49 23,24 5,7 2,42l52 6c-8,-36 -13,-83 -61,-61l-19 -29 -14 24c-4,-44 7,-20 31,-45 -43,9 -37,19 -74,-5 -20,6 -22,3 -35,20zm1004 240c7,48 19,77 10,126 -5,30 0,90 2,124 24,-12 22,-30 23,-60 2,-40 13,-184 2,-211 -6,-15 -2,-6 -10,-14l-27 35zm6065 -150l53 -29c-14,14 -31,25 -53,29zm0 0c-1,2 -2,2 -2,5l-10 15c84,-46 -6,19 58,-4 34,-13 30,-22 80,-27 -8,-14 5,10 -7,-8l-5 -6c0,-1 -1,-3 -1,-4 -8,-14 8,-5 -15,-21 -19,-13 -53,-5 -81,-5 -23,32 -58,37 -65,67l7 8c37,-6 0,-8 41,-20zm-3618 296c-11,-22 -7,-106 0,-121 6,10 34,99 0,121zm-36 19l43 -6c40,-12 18,-113 12,-148 -49,-9 -80,-11 -65,35 9,29 6,82 10,119zm-2957 -563c-4,-5 -4,3 -10,-22 -3,-15 1,-10 5,-12l5 34zm14 0l-7 -47c-86,-11 -51,-4 -64,132 28,7 33,19 57,5 11,-31 -1,-60 14,-90l9 82 21 6c8,14 -17,11 16,11l23 -19c19,24 3,16 22,24 8,-17 9,-96 6,-120 -2,-20 1,-5 -6,-17 -30,15 -5,18 -25,52l-6 -47c-50,-16 -33,5 -60,28zm5799 -1028c21,-32 -20,-202 -45,-231 -32,-38 4,-21 -17,-67 -10,-22 -20,-32 -29,-55 25,-31 23,-6 39,-41 -44,8 -76,23 -52,70 16,34 27,64 42,101 14,33 38,66 40,104 2,45 -4,83 22,119zm-4892 1637l8 -61c8,13 18,22 29,33 -22,20 -11,37 -6,73l52 -16c7,-25 2,-50 -23,-59 28,-12 26,-3 26,-49 -22,-10 -46,-14 -65,-18 -15,18 -21,20 -28,46 -11,39 -15,40 7,51zm1944 -331c12,6 11,6 37,1 47,-10 76,-21 129,-27 27,28 9,40 39,63 1,-33 -8,-45 -15,-72 27,4 53,8 82,11 57,6 12,6 73,34 42,19 124,31 173,26 -56,-30 -94,4 -190,-55 -24,-14 -38,-8 -70,-21 -75,-30 -43,-11 -85,-5 -18,2 -136,6 -173,45zm3026 389l13 -8c4,-4 11,-13 11,-15l4 -603c0,0 -22,132 -22,139 -3,54 4,100 1,159 -4,52 8,103 5,158 -1,26 3,58 -1,81 -6,36 -9,50 -11,89zm-5847 -579c0,-1 4,-9 4,-11 7,-8 6,-7 12,-12 -7,27 9,7 -16,23zm137 27c-3,-7 -5,-5 -6,-18 0,-1 1,-21 1,-21 3,-18 8,-18 16,-28 2,28 4,44 -11,67zm-611 288c-13,-25 -8,-28 -1,-59 29,57 1,58 1,59zm-71 -89l-7 86c27,-9 12,0 30,-20l6 32 -35 1c7,38 0,15 0,53 0,48 21,31 5,58 23,-1 14,7 16,-30 3,-28 1,-43 0,-72l46 -4c15,15 -1,-11 6,18l4 11c1,-1 4,-5 4,-4 1,2 4,-3 5,-4 4,-5 5,-7 9,-15 15,-30 4,-76 -7,-104 -18,-6 -62,-12 -82,-6zm2021 -69l-156 -23c12,-11 4,-19 23,-9l4 -41c122,4 98,7 169,75 -20,33 -24,12 -13,24 23,13 32,4 58,7 -12,-47 6,5 -44,-46 -106,-108 -45,-35 -191,-82 -46,-14 -45,79 -9,102 21,13 50,18 77,10l12 -4c2,-1 4,-2 6,-2l44 -1c24,-5 5,0 20,-10zm5046 113l4 23 -4 -23zm17 -49c4,17 2,16 -11,34 -39,-54 -54,25 -47,61 39,16 23,8 54,-1 27,-8 47,0 62,-3l3 -30c1,-12 4,-23 7,-38l78 0 -68 -27c-28,-4 -50,3 -78,4zm-7085 -321l54 13c-17,-29 -10,-106 -3,-120 8,-15 -5,-3 10,-7l6 34c-2,36 -10,33 1,73 1,2 3,9 4,11 1,2 2,4 2,6 1,1 2,4 3,5 0,1 1,4 2,5 16,-21 10,-101 7,-137l-18 -11c-2,-1 -4,-3 -5,-4l20 -23 -62 -15c3,-24 10,-41 15,-62 -17,8 -9,-12 -21,20 0,1 -5,30 -5,31 -6,31 -6,28 -2,59 3,28 10,104 -8,122zm821 -75l-48 3c18,50 17,84 18,144l8 -12c6,21 -1,21 12,44l38 -11c0,0 24,-161 2,-216 -15,12 -10,7 -18,23 -8,14 -5,9 -12,25zm-899 17c-8,21 3,12 -17,19 2,-17 4,-13 17,-19zm-58 25l80 15 13 -47c4,-25 4,-42 -1,-67 -16,-11 -4,-6 -36,-5l-3 -32 -38 -6 -3 -29c-15,23 -20,122 -18,153 0,15 -2,7 6,18zm8344 576c31,1 95,23 77,-42 -50,8 2,-4 -34,21 -12,8 -18,7 -37,5 -102,-8 -23,-15 -88,-20 -59,-4 -146,-1 -206,0 -4,77 9,31 54,61 28,-26 62,-21 106,-24l30 35 94 -31c1,-3 3,-3 4,-5zm-6387 -146c67,-7 115,8 186,3 36,-2 90,3 119,-9 48,-19 37,-3 50,-18 -18,-11 -10,-7 -35,-11 -62,-12 -13,3 -74,16 -23,5 -29,6 -53,7 -30,-77 -1,-50 -19,-88 -47,12 -18,30 -28,76l17 6c-62,48 -45,-64 -45,-64 -2,-31 -2,-24 -20,-33 -13,15 -2,-18 -12,18 -9,34 10,54 -18,75 -16,-22 -13,-51 4,-66 -29,-25 4,-28 -47,-25 1,39 9,67 -7,92 -1,2 -6,6 -7,8 -7,8 -3,1 -11,13zm2497 -238c-1,-37 -1,-11 21,-35 17,-17 3,-23 42,-20l-63 55zm55 -78c35,0 31,-10 24,25 -13,-16 -8,-15 -24,-25zm253 -83c-2,-4 -19,2 -6,-38 14,-38 9,-14 21,-18 10,24 8,43 -15,56zm-28 -17c-12,-13 -8,3 -9,-21 0,0 4,-18 5,-20 11,15 12,7 4,41zm-11 -52c-10,21 -11,30 -26,41 12,-32 0,-20 26,-41zm-4787 573c3,3 24,-5 0,30 -3,-4 -20,-4 0,-30zm8 -101c-2,-1 -31,1 -12,-46 6,-13 5,-6 11,-13 6,22 11,37 1,59zm-37 -79c-1,36 -1,82 12,106 1,0 3,-1 4,1 8,22 4,0 9,0 8,0 -3,-2 16,-1l0 52c-31,4 2,-16 -37,-4l-5 59 65 6 -1 -29c11,24 8,17 37,22 5,-32 5,-114 -3,-130l7 -16c-2,-24 -2,-10 -15,-30 18,-17 17,-1 19,-30 -31,-26 -75,-16 -108,-6zm6625 -1596l27 -19c-29,159 5,205 -14,393 -21,195 11,152 -14,307l-3 76c8,27 3,9 14,19l5 -67c9,31 -7,17 14,25 1,-39 10,-28 -13,-46 12,-171 14,-421 19,-602 1,-32 6,-64 7,-98l-10 -102c-22,19 -18,29 -30,52 -52,-15 -75,-73 -134,-90 7,27 44,50 71,68 49,36 63,47 61,84zm-6652 1152l6 38 -36 -4c1,-1 4,-5 5,-3 1,1 4,-3 5,-4 41,-34 -27,28 9,-7 8,-8 5,9 11,-20zm-50 -15l1 9c13,20 4,-21 16,26l-25 -2c20,50 -14,15 1,43 18,-4 39,-5 60,-2 76,11 52,-5 61,-153l11 19c3,-12 9,-13 1,-29 -1,-2 -4,-5 -6,-6 -24,-12 30,7 -13,0 -38,-6 -16,-17 -61,-20 23,19 15,11 16,49 -1,-2 -2,-7 -3,-6 -6,13 5,-12 -20,-31 -3,0 0,6 -19,13 -1,-11 -3,-13 2,-20 15,-19 -24,20 9,-7l12 -7c-20,-6 -14,-2 -26,-14 -22,41 -15,46 -17,138zm1079 -78c-5,13 -3,12 -11,21l-34 -35c25,-10 15,-11 27,18l18 -4zm-1116 716c18,44 8,21 0,34 -18,-19 -5,21 -8,-16 -2,-35 1,-7 8,-18zm8 -66c5,8 11,3 8,29 -5,33 -5,16 -19,23 -4,-18 -10,-41 11,-52zm0 -20c-13,-8 -24,-19 -10,-59 5,-15 5,-9 10,-14 7,22 15,53 0,73zm-54 -105c16,35 27,80 27,131 -20,12 -7,-7 -19,20 -6,13 -7,32 -11,48l23 20c-42,26 88,18 97,-4l10 -196c-74,-27 -33,16 -76,-5 -24,-11 -2,-20 -51,-14zm6161 -6l-3 -36c2,-2 4,-6 5,-5l31 -38c15,-22 22,-27 44,-39l2 51c-38,25 -49,47 -79,67zm13 -108c3,7 7,16 9,21 -11,10 -14,13 -24,20l15 -41zm25 -59c36,-14 33,-33 81,-43l-13 41 -26 1c-5,34 -20,47 -42,56 -7,-19 -2,-29 0,-55zm-4155 127c26,15 11,-14 21,29 7,28 -1,55 54,79 -112,-5 -34,4 -108,-19 1,-2 3,-7 4,-6 8,17 22,-72 29,-83zm-115 -27l66 15c-6,45 -2,73 15,100 -45,-4 -47,-13 -84,-17l3 -98zm-85 -110l-8 52c-2,-2 -4,-7 -4,-6l-17 -21 -17 24 21 15c-10,11 -10,10 -10,18 18,15 33,18 61,21l5 86 33 10c2,11 18,-5 -16,17 31,10 35,15 75,18 -4,3 -7,2 -8,8 0,1 0,3 0,4l176 13c8,-9 6,5 10,-25 15,25 -3,6 21,16 5,-40 49,-94 11,-129l-11 27c-14,-17 -8,-14 -69,-31 -29,-8 -58,-11 -90,-14 -97,-9 -109,-30 -164,-43 17,-27 33,-42 43,-72 27,15 46,24 80,22 -13,-8 -73,-38 -80,-40 -28,15 -23,9 -42,30zm4164 226c2,0 3,-1 9,-4 7,-4 11,-7 16,-10 -19,22 -23,13 -25,14zm-3 -115c7,-17 -4,-10 19,-22l-19 22zm-8 -27c-3,-30 17,-34 35,-46 -3,32 -14,25 -35,46zm-47 -103c0,2 1,4 2,7 2,16 9,4 4,29 -5,20 -5,40 0,57l48 66 -30 20c20,9 20,2 34,-7 25,-15 18,-14 41,-30 -8,20 -2,7 -12,21 -2,3 -15,18 -18,20 -21,21 -22,2 -27,33 20,-5 39,-14 45,-30 -4,20 -52,60 -62,66 3,1 7,3 8,4l10 8c1,1 4,3 5,4 -18,6 -13,0 -19,18 1,0 18,-3 19,-3 20,4 -1,-4 15,7 -13,8 -24,14 -37,24 35,1 54,-29 73,-40 23,-14 34,-5 40,-34 -27,0 -50,20 -72,34l85 -78 -11 -14c11,-19 12,-43 15,-57l11 -30c5,-25 -10,15 1,-30l5 -93c-12,10 -14,12 -32,16 -5,-46 -22,-37 -67,-40 -18,25 -45,39 -74,52zm-2456 437c0,-50 -3,-32 22,-65 16,-21 13,-38 37,-34 5,17 -45,88 -59,99zm111 -74c20,-8 3,4 16,-14l37 -36c7,14 -62,117 -77,127 3,-39 19,-43 24,-77zm-41 -55l7 21c-13,-1 -8,14 -7,-21zm41 55c-2,0 -5,0 -6,2 0,2 -4,2 -5,3 -12,5 -9,11 -32,-5 22,-24 54,-53 61,-82 -31,12 -5,3 -33,23l-11 -12c-11,-11 -3,-5 -12,-10 -22,12 -17,18 -36,45 -15,21 -23,22 -30,51l-26 -1c-1,0 -3,-1 -3,-1l-8 -3c7,-11 12,-19 22,-32 14,-18 13,-13 22,-32l-31 6c-16,31 4,16 -29,71 1,2 2,3 2,5 0,3 17,14 3,45 -17,38 -22,4 -26,44l26 -19 -1 45c25,-8 29,-12 42,-36l23 -38c7,-8 8,-7 13,-11 21,46 -23,55 -32,91 16,-12 35,-39 57,-38 7,36 0,-4 -15,38 52,-21 57,-79 92,-107 4,18 9,37 5,56 -7,28 -1,6 -12,20l-12 15c-1,2 -3,4 -4,7 49,-17 22,-23 47,-30 17,-5 4,16 20,-8 9,-14 -3,-14 14,-32 -57,-77 12,-128 26,-154l31 47c-19,47 -29,21 -13,54 -41,-2 -17,-10 -33,13l26 -9c-3,42 3,51 -16,83l34 -12c54,-6 30,-52 29,-137l22 -13c-2,-2 -4,-7 -5,-5 -4,9 -32,-52 -33,-53 -16,6 -28,14 -43,22 -24,14 -18,5 -33,30 -5,-30 7,-30 8,-32l10 -10c-55,10 -55,18 -68,44 -1,1 -1,3 -2,5 -12,22 -23,17 -25,57zm-2300 -307c11,-18 11,-27 37,-32 -15,23 -13,14 -37,32zm15 -46c-11,18 -12,37 -35,19l35 -19zm0 0c10,-17 -19,-4 19,-15l-19 15zm-10 -52c15,-28 11,-20 34,-32 -9,22 -13,21 -34,32zm22 -80c22,-8 17,9 18,13l-33 4c2,-4 9,-15 15,-17zm995 718c33,-15 22,-1 53,-10 17,-5 16,-16 22,9l-75 1zm915 -35c4,-29 6,-43 31,-57 -6,16 -3,22 -10,36 -11,22 -11,14 -21,21zm-956 -49l7 -33c11,17 3,21 -7,33zm74 -28c41,-26 8,-7 18,0 -6,3 14,19 -18,0zm897 -38c-2,3 -3,8 -13,16 -9,6 -2,2 -12,4 3,-21 -1,-16 25,-20zm-821 -7c23,-22 -16,15 0,0zm821 7c9,-22 -5,-6 14,-19 -7,26 -9,15 -14,19zm-784 -38c-4,4 -4,5 -11,11 -6,6 1,0 -10,2l21 -13zm825 -22c18,8 16,-14 14,15 -1,21 -7,11 -19,16l5 -31zm-896 41c-1,-16 -4,-18 -10,-29 15,10 6,-9 16,15 6,14 4,3 -6,14zm533 -187c-7,11 6,6 -20,16l20 -16zm-40 8c6,-28 8,-25 33,-36 -10,29 -10,22 -33,36zm10 -42c11,-23 4,-8 19,-21 -4,16 4,10 -19,21zm21 -52c-7,39 -2,14 -20,23l20 -23zm15 -38c-11,22 -20,26 -37,35 11,-21 15,-22 37,-35zm-1246 7c-12,-30 -22,-34 9,-40 -10,20 -7,9 -9,40zm1247 -61c-4,8 0,5 -10,13 -2,2 -11,8 -13,10 -9,6 -10,7 -20,12 11,-21 18,-25 43,-35zm89 -33c-9,12 -7,10 -19,20 -6,5 -7,5 -16,7l35 -27zm-27 -7c2,-28 14,-32 39,-36 -13,27 -18,22 -39,36zm-109 -21c-5,-28 -6,-15 20,-20 -12,18 -2,8 -20,20zm-584 4c-23,-21 -27,-47 14,-43l-14 43zm1053 -22c19,-6 40,-17 60,-22 -28,51 -29,61 -54,69l-6 -47zm-451 -33c-16,14 -2,4 2,1 11,-12 1,-4 -2,-1zm-770 36c19,-11 33,-10 45,-22 14,-13 9,-19 22,-38 28,5 27,3 20,19 -13,32 -17,24 -32,25 13,26 -8,9 18,21 -53,3 -10,24 -66,20l-5 -12c-6,-22 5,15 -2,-13zm1284 -81c-20,0 -11,0 -15,-16 14,3 13,-20 15,16zm-431 -20l38 -3 -24 28c-6,-6 -4,-3 -10,-12 -10,-15 3,14 -4,-13zm-95 -8c7,-10 12,-13 28,-21 -11,18 1,17 -28,21zm-1075 -21l3 11c1,14 -10,4 1,17 14,15 16,10 30,36 -41,-13 -60,-38 -98,-35 -92,7 -78,-9 -86,-24 22,-3 138,-7 150,-5zm1116 206l25 -31c-29,6 -18,5 -43,18 8,-16 -12,-17 51,-29 -13,-13 -1,-8 -23,-18 16,-27 6,-26 20,-46l-24 -17c31,0 13,10 25,-13 -12,-8 -1,-2 -19,-5l-9 -2c0,-1 -2,0 -4,-1 31,-20 10,6 29,-23 -8,-3 -6,-4 -16,-1 -9,3 0,1 -10,5 -2,1 -6,5 -7,3 -1,-2 -5,3 -7,4 17,-23 13,-23 39,-31 -7,-18 -18,-37 7,-36 6,23 -2,53 6,85 8,38 19,20 36,47 -27,34 -13,16 -36,2l-7 78 -33 11zm-1150 -227c-3,1 -7,4 -14,2 -22,-7 -8,-4 -16,-11l30 9zm-81 0c-35,21 -42,7 -57,-18 16,2 27,4 39,8 30,10 7,2 18,10zm1175 -15c0,-9 4,-11 6,0 3,14 -6,3 -6,0zm45 -7c0,-11 3,-11 5,0 2,9 -5,4 -5,0zm-17 -45c9,-11 12,-9 17,-18l-17 18zm20 -53c-10,-11 -8,-6 -22,-15 9,-14 4,-9 22,-13 17,12 38,36 45,58 11,36 20,37 4,83l-18 -49 -35 7c4,-16 34,-37 4,-71zm-3182 899c-50,9 -13,-1 -37,-5 -12,-2 -37,7 -47,9 6,-19 -5,-2 7,-15 24,-25 49,-14 61,-16 12,-1 59,-33 73,-39 -3,24 -7,19 -29,32 -9,6 -14,7 -20,16l-8 18zm-32 -78c-12,20 -45,39 -68,53 5,-22 -5,-6 12,-20l56 -33zm1420 -15c-3,4 -4,5 -12,11 -1,0 -17,9 -18,10 12,-20 1,-12 30,-21zm-1420 15c6,-23 8,-22 29,-31 -9,16 0,7 -10,17 -10,11 -6,6 -19,14zm-96 -30c-8,-12 -9,-4 -8,-30 0,-27 -1,-18 11,-34 10,23 6,46 -3,64zm1516 15c14,-19 46,-34 80,-42l-38 26c-14,6 -26,12 -42,16zm-1350 -20c13,-26 4,-20 30,-33l-30 33zm1376 -21c23,-21 15,-19 49,-31 -10,18 -28,24 -49,31zm-77 10c11,-8 12,-6 26,-16 0,0 12,-9 13,-10 11,-9 5,-6 18,-12 29,-15 39,-25 66,-27 -17,17 -36,27 -59,42l-47 29c-31,6 -10,0 -17,-6zm-1305 -45c12,-19 18,-20 40,-27 -7,22 -14,19 -40,27zm-89 -14l9 -10c0,-1 2,-3 3,-4 15,-15 -3,-6 26,-16 -1,2 -3,3 -4,6 0,2 -12,30 -34,24zm-78 -14l5 -83c13,12 9,71 -5,83zm1561 -24l29 -19c-9,16 6,7 -11,15 -10,5 -8,3 -18,4zm-1377 -36c13,-24 9,-19 28,-31 -8,26 -5,20 -28,31zm1317 21l85 -59c-17,26 -56,53 -85,59zm-32 -73l3 17c-8,-2 -26,8 -3,-17zm-1287 11c7,-29 -4,-16 22,-29l-22 29zm-175 -14l1 -42c3,3 9,22 10,24 3,31 -11,16 -11,18zm1156 -39c-24,-7 -14,12 -18,-14l8 -22c7,7 11,9 13,18 5,19 3,9 -3,18zm-1084 20c12,-24 0,-8 17,-27 17,-20 0,-7 24,-17 -8,25 -14,30 -41,44zm1256 -55l-4 -38c21,-21 14,-21 40,-30l-1 40c-12,0 -12,0 -25,-1 5,20 2,16 -10,29zm-218 -23c15,-20 3,-14 41,-11 -20,31 1,10 -29,11 -19,1 3,12 -12,0zm-945 0c-9,4 -7,-12 1,-11 8,0 4,9 -1,11zm-60 -84c11,-35 2,-13 24,-28 19,-13 10,-10 28,-22 -16,31 -29,33 -52,50zm-30 -112c12,-25 26,-32 55,-40l-10 37c-28,-23 -11,-9 -45,3zm-65 -140c14,20 13,31 13,57 0,34 1,43 -16,60l3 -117zm1171 -170c-12,11 10,6 -22,6 -17,0 -4,-4 -21,0l16 -20 27 14zm-1070 -22c-11,14 -23,30 -37,42 -11,-26 -6,-17 9,-27 3,-1 18,-8 28,-15zm0 0c7,-10 10,-14 18,-22 19,-20 8,-9 24,-17 -13,24 -29,28 -42,39zm-34 -7c10,-16 8,-15 26,-21 -10,10 -5,8 -12,14 -9,8 0,2 -14,7zm67 -60l-16 17c9,-33 0,-12 16,-17zm-193 11c6,-22 4,-10 20,-19 -10,31 0,17 -20,19zm226 -8c9,-9 8,-9 18,-17l-36 37 18 -20zm1134 -2c9,-10 -19,-19 32,-14l-32 14zm-1316 10c4,-12 6,-18 12,-27 14,-18 4,-13 29,-14 -13,25 -19,27 -41,41zm26 49c-8,-38 7,-16 31,-46 22,-26 18,-53 70,-62 -15,31 -6,7 -25,32 -11,15 -10,24 -17,34 -12,16 -15,7 -45,32 -1,1 1,27 -9,7 0,-2 -3,2 -5,3zm1466 -114c-9,8 7,3 -14,12 5,-18 -6,-4 14,-12zm0 0l48 -19c-15,7 -22,14 -48,19zm133 -39c-7,26 -15,26 -33,43 4,-10 6,-17 12,-25 11,-15 9,-11 21,-18zm-1615 34c6,-23 11,-24 29,-35 -10,26 -5,22 -29,35zm1615 -34c7,-11 -1,-8 12,-10 -10,18 -1,2 -12,10zm-1377 -47c11,-30 10,-15 24,-21 -12,19 -7,16 -24,21zm26 -70c4,-33 8,-35 24,-54l-24 54zm350 -152l10 -9 -10 9zm9349 1342l18 32 -67 1c2,-2 4,-7 5,-5 1,1 4,-4 5,-5l39 -23zm-409 21c0,-2 6,-2 6,0 2,8 19,-12 10,4 -5,9 -16,22 -16,-4zm-14 -9c-6,35 10,10 -19,21l19 -21zm-1147 -18l0 34 -51 -1c9,-16 32,-28 51,-33zm2272 9c14,6 4,-10 16,11 12,22 -1,22 -1,22 -14,-6 -27,-17 -15,-33zm-4473 18l62 -9c34,4 11,1 22,11 -24,6 -63,10 -84,-2zm3302 13l-72 -17c21,-10 35,-3 60,4 17,-16 14,-13 38,-20 -21,16 -13,8 -26,33zm-1483 -15l-1 -33c64,7 42,-6 98,-13 12,20 16,-23 4,37l25 -6c-7,17 12,14 -18,15 -57,2 -76,-25 -108,0zm1762 -21l42 -18c-23,57 -47,48 -64,49 12,-16 13,-14 22,-31zm-1291 7c23,-9 22,-26 46,-4l-46 4zm1223 -29c3,29 3,8 -6,17l6 -17zm-345 29l42 -28c23,40 -32,44 -56,42 -52,-4 -21,-4 -35,-15 16,-6 28,-9 42,-19 10,18 -9,11 7,20zm-4003 -13l36 -19 -5 42 -24 0c-3,-13 -5,6 1,-9 4,-10 -2,7 7,-15l-15 1zm4260 20c22,28 -7,4 37,17l-64 5c7,-34 20,-22 42,-42 9,-10 10,-17 22,-23 19,-10 21,8 21,8 -31,11 -33,18 -58,35zm-408 -27c-3,6 1,9 -6,17 26,-7 9,-5 27,-6 18,-2 9,3 32,-4l-9 22 32 2c0,1 -2,4 -2,5 -1,1 -2,4 -3,6 -30,-3 -29,-13 -68,-9 -61,5 -55,-10 -64,-19l32 -22 -13 27c35,-11 16,-8 42,-19zm-1755 -9l12 11 -12 -11zm2178 -13l-15 19c7,-20 1,-11 15,-19zm-370 29c5,-8 -2,-4 10,-13 9,-7 10,-6 21,-10 -6,19 6,3 -9,15 -4,3 -17,7 -22,8zm-1636 -7l0 -25c23,3 7,-1 12,9 -12,28 -6,9 -12,16zm821 -23c-1,-2 4,-4 4,-3l8 1c-2,14 -12,3 -12,2zm1185 1c9,-12 -11,-4 12,-13l-12 13zm-155 9l17 -23 -17 23zm-997 -18l21 -3c-1,4 -4,5 -4,7 -4,9 -17,-4 -17,-4zm-649 15l27 -19c-10,22 9,14 -27,19zm-94 8l33 -26c-1,11 -24,21 -33,26zm1556 -8l14 -15c14,-11 12,-8 23,-14 -12,18 -16,23 -37,29zm-1667 -9l-10 -15 10 15zm-64 -13c0,-2 9,-10 5,0 -1,3 -6,13 -5,0zm2276 64l27 -12 8 23c23,-9 43,-18 57,-34 -5,7 -18,18 -18,19l-6 17c0,1 -1,3 -1,4 0,1 -1,3 -2,5l-107 -2c16,-35 21,-25 43,-51 30,-35 0,-29 53,-46 -17,25 -46,47 -54,77zm-410 -39l4 -33c20,-7 9,-6 33,0 -13,16 -20,24 -37,33zm-219 13c5,-13 -4,-9 24,-30 12,-10 18,-14 28,-23 -9,21 -32,40 -52,53zm-29 -8l16 -21c8,-6 17,-11 28,-20 -12,24 -16,30 -44,41zm-1726 -1l-10 -2c1,-23 11,-25 20,-38 -4,18 -8,13 -10,40zm381 -32c-19,3 5,-17 3,-7 0,1 -1,6 -3,7zm-83 -9l4 -5c0,0 -2,5 -4,5zm-2259 -2c-23,10 -10,-12 -1,-12 19,-2 7,10 1,12zm2428 -1c2,-2 12,-6 14,-8 9,-7 3,-2 11,-11 21,-25 -14,-10 31,-23l-14 41 -42 1zm-7 -23c-13,11 16,4 -19,12 -13,3 -12,0 -21,-1 11,-23 3,-32 40,-11zm1238 4l28 -25c0,4 -3,4 -4,7l-24 18zm-870 1c12,-24 50,-32 22,-6 -7,6 -13,4 -22,6zm-1546 -58c1,2 2,3 3,5l41 46 -29 13c-1,-3 -3,-7 -3,-6l-12 -58zm1502 58c10,-26 20,-29 47,-38 -13,23 -25,30 -47,38zm-985 12l4 -42 26 -1c-5,38 -3,29 -30,43zm-1979 -10l79 -38c-9,19 -31,34 -55,41 -33,10 -22,-1 -24,-3zm5152 -24c16,-27 9,-25 37,-38 2,31 -6,39 -37,38zm-4940 3l18 -25 -18 25zm2037 -44c16,8 43,16 59,26 24,15 27,31 57,19l-6 13c-19,30 -10,22 -37,23l-23 -39c-2,-3 -7,-11 -8,-12l-29 13c-2,-2 -4,-7 -4,-5 -1,1 -3,-4 -4,-5 -1,-1 -8,-9 -8,-11 -4,-7 -14,4 3,-22zm684 40c42,-20 7,-36 60,-34 -22,21 -23,26 -60,34zm2165 -42c0,-1 21,-25 10,-2 -4,8 -13,16 -10,2zm-4753 50c-21,-52 -50,-45 11,-90 7,28 22,34 -11,90zm4762 -6c7,-9 24,-42 43,-52 22,-13 4,-9 24,0 -1,2 -3,2 -4,4 0,3 -3,4 -4,5l-9 7c-25,23 -23,30 -50,36zm-2152 -52c-13,31 -25,38 -50,35 13,-18 20,-28 50,-35zm-583 37c-44,-15 -39,-25 -44,-33 13,-9 24,-22 47,-32 -9,63 -17,7 -3,65zm795 -58c-24,30 -23,6 -25,5l25 -5zm1521 22l8 -8c26,-26 16,-18 43,-27 -13,22 -14,26 -28,39l-23 -4zm-722 -7c2,-2 3,-6 4,-5 0,1 2,-4 3,-4 12,-9 1,-3 18,-10l-9 10c-12,9 -3,3 -16,9zm-1787 -32c26,6 6,-5 26,18 17,20 11,8 22,29 -41,6 -4,-6 -49,-25l1 -22zm-1941 27c-20,5 2,-19 2,-6 0,1 1,6 -2,6zm4751 50c0,-11 9,-14 36,-42 21,-21 5,-2 31,-15 12,-6 12,-9 23,-17 0,0 -70,79 -90,74zm-81 -77l-7 23c-5,-8 -15,11 -4,-13 8,-16 1,-3 11,-10zm-2074 61c13,-21 52,-63 73,-54 -14,14 -18,12 -33,26 -20,19 -10,19 -40,28zm-2826 -13c9,-28 5,-14 37,-32 19,-10 26,-15 47,-22 -17,30 -46,43 -84,54zm3122 -41c13,-23 3,-16 31,-24 -14,24 1,9 -31,24zm-175 31c9,-24 33,-43 60,-49l-60 49zm-83 29c22,-39 61,-69 98,-75 -11,19 -25,27 -42,42 -19,15 -25,30 -56,33zm-48 -29c12,-29 18,-35 46,-44 -12,30 -16,33 -46,44zm2084 -38c10,-18 1,-22 27,-10 -15,6 -17,7 -27,10zm-58 -15c24,-1 15,-6 32,8 -21,31 1,4 -19,16l-13 -24zm-87 90l0 -24c-36,3 -12,12 -48,16 25,-26 84,-70 119,-83 -1,2 -2,3 -3,6 -7,34 -31,-17 -9,53l-59 32zm-16 -52c22,-41 8,-51 56,-45 -12,21 -37,36 -56,45zm-721 -37l0 0zm-859 31c8,-20 15,-26 35,-36 -9,21 -18,29 -35,36zm-107 11c9,-24 30,-35 58,-48 -1,28 -30,45 -58,48zm-57 0c27,-19 21,-34 65,-44 -9,26 -29,43 -65,44zm-929 11l26 -48c13,-13 5,-7 22,-13l-20 36c-19,29 0,18 -28,25zm-1755 -33c5,-33 2,-12 32,-27 -6,23 -12,19 -32,27zm3851 -12l24 -21c-11,18 6,10 -24,21zm239 -22c10,-6 -2,-4 16,-6l-16 6zm-383 14c6,-11 -7,-2 13,-17 12,-8 5,-1 14,-4 -10,23 3,15 -27,21zm170 -12c2,-20 7,-17 33,-17l-33 17zm-230 58c-12,38 -4,6 7,17 30,-24 128,-107 164,-94 -20,29 -99,67 -131,108l-67 1c12,-26 4,-23 27,-32zm-1638 -16c6,-28 26,-53 60,-67 -11,30 -30,57 -60,67zm-2321 -7c6,-28 3,-19 35,-34 24,-11 29,-16 53,-19 -22,27 -49,42 -88,53zm2017 33c3,-33 61,-79 75,-113 2,27 -27,69 -45,98 -13,22 -3,19 -30,15zm-23 -8c4,-21 0,-5 7,-16 29,-42 23,-62 59,-79l-66 95zm2050 -94c22,-11 26,-7 47,4 -12,8 -19,21 -47,-4zm-146 100c37,-8 50,-50 128,-94 -15,43 -52,32 -113,113l-35 -1c12,-34 82,-133 120,-118l-75 70c-25,21 -13,1 -25,30zm-1726 -40c-3,-4 -16,-19 -18,-20 -16,-13 -12,-5 -24,-13 -29,-20 -22,-28 -22,-38 0,-3 2,-4 3,-6 19,17 55,54 61,77zm-1894 -51c-14,6 -8,20 -6,-1 0,-2 7,-14 8,-1 0,0 1,1 -2,2zm-118 3c-4,-23 -2,-11 11,-18 -4,21 5,9 -11,18zm3750 28c-3,-30 41,-58 41,-58 30,-4 24,11 24,11 -16,6 -58,37 -65,47zm-1941 49l-6 -81c55,-28 6,-5 45,-31 -12,18 -16,20 -14,34 2,13 8,0 2,17 -6,19 -18,51 -27,61zm-1631 -113c18,6 8,-1 16,9 -9,32 -10,38 -43,47 2,-46 11,-21 27,-56zm-264 23c12,-9 21,-18 31,-28 -6,27 -2,19 -31,28zm-564 -43c12,3 20,-5 20,21 -1,33 -11,20 -23,22l3 -43zm678 53c14,-18 15,-18 37,-32 -12,20 -12,20 -37,32zm-187 21c10,-28 49,-49 76,-59 -9,30 -37,49 -76,59zm4666 -75c-3,32 12,20 -20,20 7,-19 5,-11 20,-20zm-4329 21l-31 10c10,-30 18,-38 45,-44l-10 31c0,-1 -3,2 -4,3zm4270 -8c7,-11 13,-13 28,-21 -15,21 -4,17 -28,21zm-640 -6c4,-22 46,-16 68,-17l-10 9c-23,15 -32,13 -58,8zm-1645 8c29,-18 5,-21 45,-33 -3,9 -13,49 -15,55l-15 1c-2,-2 -4,-3 -5,-4 0,-1 -3,-3 -3,-4 -29,-36 4,22 -7,-15zm-645 -40c3,5 25,-12 3,23 -3,-4 -14,12 -3,-23zm2742 10c1,-17 -15,-2 7,-3l3 2c4,12 -10,4 -10,1zm-488 0c20,-14 15,-12 31,5 -23,18 -14,17 -31,-5zm-3676 16c9,-15 8,-11 21,-22 -10,32 0,14 -21,22zm4291 -21l-32 24 32 -24zm-2496 -9c25,-12 -4,-4 32,-10 1,2 41,80 -18,48 0,-17 -1,1 14,-23l-33 10 5 -25zm-1855 34c5,-13 3,-8 11,-17 0,0 13,-14 14,-16 17,-18 6,-11 27,-22 -6,28 -28,45 -52,55zm4077 -34l-9 -40c38,2 106,-38 92,43l-83 -3zm-2222 0c-20,-8 -4,6 -16,-12 11,-13 -5,-8 26,-20l-10 32zm2436 14c-10,-17 -8,21 -7,-22 1,-19 19,-33 27,-58 44,41 177,-47 186,44 -62,1 -139,-17 -183,1 -14,5 -12,4 -17,13l-6 22zm-4175 4c5,-30 29,-51 47,-61 -1,16 -1,28 -14,40 -8,9 -26,18 -33,21zm4049 -66c0,-8 10,1 10,1 7,20 -10,1 -10,-1zm-4185 36c3,-30 15,-23 40,-42 -13,14 -26,28 -40,42zm3742 -27c-15,-82 -2,-85 25,-97 12,16 8,24 13,46 6,28 9,19 8,54l-46 -3zm-1956 104c-1,-20 -3,-12 12,-38l25 -35c11,-16 10,-19 25,-35 19,-22 21,-15 24,-24 1,-3 3,-3 5,-5 -8,40 -4,15 -23,42 -21,31 -30,79 -68,95zm2388 -125c-29,-3 -31,-2 -58,2 -35,4 -21,13 -26,-19 34,-11 67,-6 84,17zm-4162 -17l0 0zm86 50c17,-43 -12,-27 -6,-52 2,0 4,-1 4,0 13,5 33,35 2,52zm3963 -76c14,15 9,19 6,46l-13 44c-34,-41 -5,-45 -3,-50 16,-26 -12,-10 10,-40zm-87 4c0,-16 5,-10 7,-1 3,13 -7,3 -7,1zm-3984 16c10,-17 -19,-4 15,-19l-15 19zm4348 -7c35,-28 131,-23 168,-6 -13,4 -34,3 -44,14l-84 5c30,-21 24,5 52,-25 -51,-4 -51,2 -92,12zm-1729 -34c-11,38 3,15 -18,27 6,-29 11,-20 18,-27zm-2597 47c8,-32 0,-24 32,-33 -8,17 4,5 -12,23 -18,19 -6,5 -20,10zm3997 -31c23,-4 10,-25 26,-5l-26 5zm-3493 40c-7,-24 -24,-28 28,-59 24,-15 48,-7 53,-25 1,-3 4,-3 8,-5l-2 67 -33 12c-6,-10 1,-3 1,-19 0,-2 0,-3 -1,-5 -28,18 -17,26 -54,34zm3596 -54c12,-7 14,-18 57,0l-1 30 -51 -27c-1,-2 -3,-2 -5,-3zm-2592 -8c-7,31 -2,23 -27,35 3,-9 3,-17 8,-23 16,-23 1,-7 19,-12zm2923 -7c-2,-15 4,-4 5,0 3,10 -5,4 -5,0zm-3066 0c-18,17 -16,17 -45,27l45 -27zm412 148c9,-121 1,-83 54,-170 42,35 -25,27 -46,114 51,-24 30,-43 62,-69 9,52 -4,34 -29,68l-36 51c-1,-1 -3,4 -5,6zm-1077 -156c0,-14 7,-9 10,2 2,6 -9,19 -10,-2zm-163 -16c-14,26 -22,29 -50,41l50 -41zm3218 11c-43,19 -17,2 -24,-2 29,-17 15,-7 24,2zm-2247 20c6,-23 19,-36 39,-45 -7,24 -1,12 -17,29 0,0 -11,10 -12,11 -1,1 -4,4 -5,3 -1,-2 -3,1 -5,2zm-767 -15c3,-5 12,-21 19,-25 28,-16 26,2 26,3 -15,15 -21,15 -45,22zm-204 -16l36 -23c22,11 19,-8 21,19 -21,13 20,3 -12,3l-45 1zm-558 -30c7,18 12,1 -1,24 -9,-15 -8,-2 1,-24zm3767 0c19,12 9,0 16,17 -12,5 -20,9 -34,1l11 -10c1,-1 3,-2 3,-4 1,-2 3,-2 4,-4zm-2199 16c9,-12 6,-9 18,-19 0,21 9,11 -18,19zm632 -23c9,5 13,6 20,12l-31 19 11 -31zm-671 1c-23,47 2,31 -30,39 13,-49 23,-36 30,-39zm-1509 69c5,-40 70,-79 86,-85 5,60 2,17 -36,48 -28,23 -8,24 -50,37zm1786 9c8,-23 34,-71 55,-79 -8,26 -9,21 -26,42 -5,8 -5,8 -12,18l-12 14c-1,-2 -3,3 -5,5zm-3358 -36c-2,-34 5,-40 24,-60 8,27 -7,44 -24,60zm2114 -54c1,21 12,12 -40,52 -31,24 -40,29 -54,20l94 -72zm3546 35c20,13 21,21 46,7 -4,-11 17,-11 -18,-21 -29,-8 -20,5 -21,6l-7 -23c-27,4 -23,8 -36,24l-15 -29c30,-15 37,0 66,-11 25,27 31,19 31,19 1,1 3,1 4,1 1,1 3,2 4,3 8,8 14,43 16,55 -35,-2 -34,-2 -65,4 -32,5 -39,-3 -52,-16l47 -19zm-341 -17c-16,-10 2,8 -10,-10 -5,-9 -4,-5 -7,-15 36,-9 17,-6 33,3l-16 22zm-5163 31c2,-22 19,-54 29,-68 21,-28 -1,-2 19,-18 -3,48 -24,59 -48,86zm1832 7c19,-20 27,-22 50,-39 19,-15 28,-30 59,-38 -9,21 -60,60 -83,74 -17,10 -9,9 -26,3zm-305 -55c33,-8 29,-17 49,-32 20,44 -12,79 -50,102l1 -70zm-1611 52c1,-32 0,-30 13,-52l28 -28c2,27 -13,45 -32,71 -1,1 -4,6 -4,5 -1,-2 -3,3 -5,4zm3314 -58c7,-10 9,-7 15,-17 -14,30 -4,10 -15,17zm-305 17c4,-24 15,-29 31,-38 -3,8 -7,19 -13,26 -12,15 1,5 -18,12zm-756 -24c4,-24 0,-11 22,-19 -5,19 9,5 -22,19zm-364 13c9,-16 16,-24 38,-24 -16,18 -13,23 -38,24zm3356 -39c39,-10 5,-3 19,4 -6,7 9,7 -17,14 -29,6 -20,-6 -20,-6 6,-8 -7,-6 18,-12zm-3297 5c-5,8 -11,6 -5,-1 1,-1 3,-1 3,-1l2 2zm3252 -47c6,5 13,-8 18,25 3,21 -7,19 -7,19 -16,-20 -11,-17 -11,-44zm-2211 75c15,-32 17,-36 45,-51 -20,32 -22,31 -45,51zm-739 -38c0,1 -17,21 -8,2 1,-4 12,-24 8,-2zm3339 15c-7,-9 -10,-20 -22,-25 31,-1 12,-5 34,7 -10,10 -5,3 -12,18zm-1286 -28c31,-20 25,-1 26,0 -11,5 -5,14 -26,0zm-1489 0c-6,8 2,3 -16,15 -14,9 -2,1 -16,7 13,-19 3,-13 32,-22zm-2846 29c14,-41 4,-27 28,-38 4,27 -3,29 -28,38zm3871 -46l5 17c93,17 18,-5 124,7 41,5 51,-8 65,-23 1,-1 2,-3 3,-4l29 -17c6,7 7,1 11,19l-7 83c-7,53 -14,65 -27,109 -8,28 0,68 -9,111 -8,42 -11,75 -17,118l-63 -16c-4,0 -4,5 -20,1 34,-18 35,-9 68,-7 -28,-12 -36,-31 -72,-12 -8,5 -1,8 -17,9 0,0 -15,-1 -18,-1l-2 117 -52 -24c0,-2 -2,-6 -2,-5 0,1 -1,-4 -2,-5 -2,-17 -2,-36 7,-50 -12,-9 -11,-12 -27,-15l-30 -11c35,-12 43,3 56,5 34,4 7,2 19,-5 -40,-30 -99,-15 -151,-8 10,-8 18,-16 29,-24 30,-22 29,-3 15,-26l39 -6c-1,-43 -1,-48 -29,-70 9,-3 10,-1 18,-6 14,-10 5,-4 15,-15 -88,8 -131,32 -166,37 9,-36 23,-41 14,-78l77 -41c25,-12 75,-29 100,-40 -123,9 -117,39 -165,51 12,-33 112,-76 145,-83 37,-7 75,1 112,4 37,3 76,-8 118,-9 -15,-23 14,-11 -90,-16 11,-19 31,-37 -25,-50l-5 46c-34,8 -72,11 -106,5 -52,-10 -68,2 -112,6 13,-41 43,-33 98,-64 22,-12 21,-11 47,-14zm-1025 17c6,-8 -8,-4 11,-10 18,-7 4,-1 13,4l-24 6zm-1194 33c9,-32 25,-50 60,-48l-60 48zm-11 -27c5,-25 5,-15 24,-22 -13,25 7,9 -24,22zm1431 24l23 -38c-18,-12 -15,10 -19,-7 0,-1 -2,0 -2,0 32,-25 28,0 24,36l-26 9zm2186 -30c15,-18 12,-13 35,-16 -2,-1 -4,-3 -5,-4 -1,0 -4,-3 -5,-3 0,-1 -2,-3 -2,-3l18 -12c-16,53 5,2 -3,37 -21,10 -18,10 -38,1zm-978 -25c5,20 2,16 22,30 -68,10 -31,-6 -84,-7l62 -23zm-958 33c17,-44 11,-22 33,-51 -3,16 -4,15 -11,28 -15,29 0,15 -22,23zm-1105 25c14,-23 51,-58 75,-69 -11,24 -49,55 -75,69zm1926 -48c16,-18 23,-25 53,-30 -10,40 -6,21 1,61 -38,-3 -20,-3 -48,6l-6 -37zm-86 -20l-28 14 28 -14zm-994 -16c2,37 0,23 -22,43 -16,14 -11,19 -33,28l55 -71zm-2996 25c17,-18 -1,-8 26,-13 -6,13 -53,83 -68,92l42 -79zm2270 -7c-12,-8 -12,-5 -24,-10l13 -16c18,18 10,1 11,26zm750 -20c-4,-12 7,-3 10,2 11,17 -8,5 -10,-2zm-2912 -31c15,-2 12,12 13,-3 8,40 -7,45 -23,69 -10,14 -14,21 -21,31 -2,3 -7,10 -10,13 -8,9 -5,5 -14,12 0,-50 21,-46 55,-122zm5106 32c1,-12 9,-11 20,-13l-20 13zm-3131 47c3,-43 2,-49 47,-55 13,-2 33,-6 39,-7 35,-5 26,4 33,7 -26,7 -49,3 -71,16 -25,14 -10,21 -48,39zm1886 -48c7,-25 3,-13 33,-24 -11,20 8,3 -16,18 0,1 -17,6 -17,6zm-706 5c3,-23 6,-26 25,-41 -11,24 -10,23 -25,41zm-275 -35c-9,28 -9,23 -32,28l32 -28zm1106 -15l-4 36c-5,-13 0,-25 4,-36zm-290 81l21 -21c-1,-44 -2,-54 -40,-47 -7,38 16,52 -27,63l-7 -48c-51,12 -45,50 -51,71 -16,-21 -6,1 -9,-42l-32 -4c1,-2 2,-4 4,-5l36 -25c39,-17 152,-50 187,-38 -1,1 -3,3 -3,4l-47 59 39 -15c-9,31 -8,1 -19,54l-52 -6zm-3696 -67c-43,10 -19,62 -82,82 11,-30 21,-37 42,-62 37,-44 12,-40 51,-59l-11 39zm2835 3c8,-28 30,-46 45,-69 3,38 -17,58 -45,69zm-2894 7c3,-27 22,-48 45,-69 -6,34 -18,58 -45,69zm1607 -62c-21,18 -17,19 -38,1l38 -1zm-1515 -6c-7,8 -14,6 -4,-3 11,-9 13,-8 4,3zm2085 5c-9,-17 6,-7 -32,-18l-4 -56c1,1 2,3 2,5 28,78 22,25 34,69zm-1332 53l7 30 -68 3c11,-31 6,2 8,-32 8,-84 16,-38 14,-84 33,11 -7,-1 24,2 2,0 5,0 6,0 2,0 5,1 6,1l11 6c2,32 -19,41 -26,57 -8,15 -3,5 -5,25l23 -8zm3063 -60c13,-21 5,-10 28,-21l5 11c0,-1 2,2 2,4l58 -5c-16,14 -26,13 -32,36l37 -15 -9 52c-57,-27 -43,-5 -82,-18l-20 -15 38 -13 -25 -16zm-1804 -33c-5,32 5,20 -16,33 -2,-3 -12,3 -5,-17 9,-23 -1,-6 21,-16zm3174 -4c1,-1 -12,-22 20,2l-20 -2zm214 4c0,0 18,-54 70,-3l-70 3zm-1610 -21c-8,15 0,3 -8,15l8 -15zm-3076 31c-11,-22 -9,-14 11,-23 -5,9 -2,10 -11,23zm4599 -84c1,2 2,4 3,6l11 36c1,28 6,15 -20,25l6 -67zm-40 35c18,12 21,2 11,25 -17,-7 -14,7 -11,-25zm-882 53c31,-20 32,-36 80,-44 -15,29 -54,43 -80,44zm-116 -20c15,-12 11,-12 31,-21 -15,20 -6,15 -31,21zm-177 -25c-2,2 -4,5 -5,7l-10 10c-32,24 -27,3 -28,1l43 -18zm-1257 -2c-6,30 -14,33 -40,42l40 -42zm-1134 9c0,-2 -3,-2 -5,-5l28 -10c-2,18 0,12 -8,23l-15 -8zm-300 5c-2,1 -1,2 -10,1 -1,0 -6,-3 -8,-6l18 5zm4314 17c-21,-7 -15,5 -21,-19 -1,-4 -5,-63 6,-81 9,26 24,76 15,100zm-1121 5c8,-11 0,-6 16,-19l42 -17c19,1 9,3 18,9 -22,12 -41,25 -76,27zm-55 -1c15,-22 27,-32 61,-34 -12,14 -36,30 -61,34zm-65 -6c22,-33 35,-25 73,-29 -28,22 -35,21 -73,29zm-271 5c14,-18 6,-7 27,-20l29 -15c-7,6 -20,22 -25,26 -11,10 -14,10 -31,9zm-52 2c13,-27 32,-38 77,-40 -18,17 8,-1 -22,17l-55 23zm-75 10c17,-22 38,-46 82,-51 -18,28 -45,53 -82,51zm-292 -34c21,-6 22,-11 34,-16 -13,21 -5,11 -34,16zm-985 -8c0,7 -13,17 -9,2 4,-13 9,-21 9,-2zm-710 44c-10,-22 -4,-12 10,-30 9,-11 14,-20 26,-31 -4,28 -15,45 -36,61zm3551 -64c-5,21 23,17 -22,11l22 -11zm-3279 34c5,-18 24,-39 46,-27 -27,12 -28,3 -46,27zm3090 -32l-1 -4c21,-17 18,-11 3,4 -14,15 5,2 -2,0zm-2334 13c11,-12 9,-11 18,-23 -21,58 9,-21 -2,79 -15,-19 -1,-3 -17,-11 7,-22 1,-10 17,-30l-9 -10c-1,0 -3,-1 -4,-3 0,-2 -2,-2 -3,-2zm-1177 82c-3,-30 10,-80 20,-105l39 -4c-10,27 -18,40 -40,60 6,29 -7,13 17,32 -7,6 3,8 -36,17zm-431 -7l-61 -13c11,44 19,7 8,73 -47,-14 -27,-81 -31,-120 28,13 70,86 72,11 1,-24 -4,-12 8,-26 2,32 5,47 39,55 46,10 30,-14 69,18 12,-43 -19,-53 -7,-113l37 -10c6,11 10,32 16,43 -78,-8 -37,52 0,72 17,-3 27,-9 39,-14 11,18 2,14 24,22 -2,1 -4,3 -6,3l-37 25c57,-13 117,-15 178,-9 -9,-8 -3,-9 -21,-13 -17,-5 -37,4 -57,4 -50,-1 -57,-7 -58,-27 47,-8 55,23 111,-2 11,8 14,13 30,18 18,-22 11,-13 5,-52 25,-3 17,2 30,-12 11,44 -3,72 -9,115 -7,49 7,67 11,110 -44,-7 2,-8 -41,-19l-13 -2c-1,-1 -3,-2 -5,-2 -17,-6 12,-5 -20,-4 11,42 -17,43 -47,67l-45 20c3,-27 -12,-7 16,-27 21,-16 47,-27 64,-50l-59 -4c-20,27 -31,25 -57,48 -20,17 -35,32 -68,33 13,-13 37,-29 51,-44 7,-7 13,-17 21,-24 9,-7 15,-7 26,-17 -18,-1 -12,2 -21,13l-59 -10 -31 50c2,-1 5,-3 6,-4l24 -14c-3,31 -1,10 -29,35 -12,10 -22,21 -30,30 -24,26 -24,41 -57,58 -3,-39 19,-33 36,-66 -36,20 -60,54 -92,75 -22,15 -17,-3 -21,30 29,-12 35,-28 65,-37 -8,37 -42,65 -66,78 0,-58 -20,-42 -19,-84l65 -61c20,-21 38,-52 62,-60 8,26 8,21 -8,37l49 -72c-44,-2 -59,31 -89,52 -1,-33 -20,-57 23,-64 54,-8 206,6 234,-11l-329 -3 4 -33 31 19c22,-18 104,-19 128,-1l10 -6c22,-11 64,-12 95,-11 63,3 47,1 93,17 2,1 4,1 6,2 4,1 17,1 31,5 -11,-16 0,-8 -20,-19l55 3 -6 -34c-38,-9 -24,-12 -38,14 0,-2 -1,-4 -2,-5 0,-2 -2,-4 -2,-6l-11 -19c-74,11 -45,3 -113,2l-22 26 -15 -31c-34,1 -15,0 -39,10l-16 -23 -21 20c-71,-20 -31,9 -79,27 -6,-27 -5,-25 -27,-38 29,-6 39,-13 65,-12 -12,-12 21,-18 -33,-12zm3709 -61c-12,-24 5,-37 26,-50 -7,31 -6,33 -26,50zm-3132 -19c9,-9 3,-8 23,-21l-23 21zm1492 -26c0,0 4,-9 6,1 3,12 -6,5 -6,-1zm-3631 -7c7,4 16,6 23,8 12,4 10,4 16,7l-64 17 25 -32zm78 3l-20 -3c10,-13 16,-1 20,3zm5127 -9l0 0zm253 -22l-16 24 16 -24zm-1613 39c23,-21 13,-18 46,-32 0,1 1,3 1,4 10,29 -9,13 10,22 24,14 22,-2 32,-6 34,-14 32,14 27,42 -32,0 -29,-3 -52,14l-41 25c7,-34 10,-29 43,-43l-37 -22c-31,-13 -31,8 -50,-15l21 11zm1855 -87l8 7c23,24 11,59 18,140l-182 -6c31,-23 32,-7 73,-1 6,-9 14,-18 23,-32 28,5 20,11 53,30 1,-2 2,-4 2,-5l5 -12c0,-2 2,-9 2,-12 1,-3 1,-4 2,-6 -47,-30 3,-5 -26,-38 -31,5 -32,29 -35,23 -1,-2 -4,2 -5,3l62 -91zm-2116 110c5,-41 22,-58 59,-71 -10,35 0,16 -35,26 -6,15 -14,35 -24,45zm-975 -57l43 4c-16,10 -25,16 -36,29l-7 -33zm-2375 -7c8,-5 -2,-8 18,-4 12,3 20,10 20,12l-38 -8zm2102 -4l-25 -1c1,-2 9,-6 13,-6 18,-3 3,-2 12,7zm-609 3c-5,1 -8,1 -13,0 9,-7 12,-13 29,-7 -6,3 2,2 -16,7zm-1444 -17l16 2c-5,4 4,16 -16,-2zm2906 -20c-8,28 2,12 -16,23l16 -23zm-788 15c-29,18 -27,-1 -28,-2l28 2zm1461 31c10,-17 28,-41 53,-33 -9,1 1,-2 -10,7l-43 26zm1782 -18c6,-18 9,-15 23,-27 -14,31 13,16 -23,27zm-168 -6c5,-26 -7,-19 16,-18 -7,8 -4,8 -16,18zm-72 -31c-8,23 9,8 -17,19 7,-20 -4,-12 17,-19zm-127 2c-14,23 -30,63 -58,30l58 -30zm-2726 19c5,-23 -7,-15 20,-13l-20 13zm-66 -8c19,-10 22,-3 32,2 -46,24 -27,2 -32,-2zm-2370 -13c-14,21 6,10 -29,18 8,-9 3,-5 16,-13l13 -5zm3884 9c-2,-13 5,-5 8,1 8,17 -7,0 -8,-1zm-5 20c-28,-7 -12,0 -27,-30 11,9 18,17 27,30zm-1303 -13c3,-16 11,-13 29,-11l-29 11zm2713 -16l14 -6 -14 6zm147 103c12,-32 6,-8 23,-32l63 -92c16,18 26,-10 -31,71 -15,21 -35,39 -55,53zm-164 -30c11,-17 26,-39 39,-52l19 -20c8,-9 -15,-9 16,-11l-74 83zm422 61c-21,-8 -18,-50 -19,-80 0,-28 -4,-59 40,-77 -17,38 -20,8 -24,56 40,6 27,-2 45,15 -12,11 -26,27 -34,40 -13,20 -15,17 -8,46zm-60 -155c0,-1 5,-11 6,0 0,3 -9,19 -6,0zm-185 -7c-6,29 -3,25 -31,42 7,-25 10,-32 31,-42zm-67 30c7,-31 -8,-5 21,-28 -12,40 4,18 -21,28zm-394 47c9,-28 31,-50 59,-69 -5,22 -20,35 -41,53 -1,1 -3,3 -4,4l-14 12zm-1929 -108c8,11 3,-1 9,15 13,36 0,37 -9,45 -12,-19 -21,-19 0,-60zm1908 73c17,-23 30,-31 54,-45 -12,18 -32,36 -54,45zm-79 -17c18,-10 35,-29 57,-39 -11,26 -21,43 -57,39zm276 -35c0,0 -13,15 -5,2 2,-3 10,-17 5,-2zm-128 -8c0,0 -11,10 -5,2 4,-4 15,-18 5,-2zm-3489 6c38,-8 247,-35 272,-19 -23,13 -29,7 -49,2 7,18 -10,11 24,15 60,8 21,45 110,23l23 4c7,36 8,7 16,54l-83 38c-35,-23 -2,-24 -52,-36l-39 59c20,32 22,-1 9,35l-29 -35c49,-41 -11,-50 -32,-55 -39,-9 -3,-5 -36,-18 -20,27 -3,14 -26,35 -9,-19 -8,-8 7,-38 -37,-31 -36,-22 -55,-5 -21,20 -59,68 -88,9 -25,2 -53,-2 -62,22 -5,12 1,19 4,36l-14 16c3,-18 1,-40 -13,-51 -9,-6 -22,-10 -34,-10 -44,1 -22,7 -30,15 0,-1 -1,-3 -1,-4l-1 -14c-3,-16 1,-4 -5,-13 -46,7 3,-8 -29,32l-20 -21c-1,-1 -4,-3 -5,-3l94 -32c-8,11 -11,11 -13,26 43,8 39,-15 70,-12l23 12c25,-19 45,-18 86,-18l2 20c10,-18 10,-15 33,-28 19,-9 17,-8 38,-11 -9,-11 19,-18 -30,-15 -32,2 -1,1 -30,12 -62,22 -90,-1 -121,8 -74,19 -48,4 -55,-1 60,-34 190,5 227,-30 -22,-12 -23,-5 -51,0 -40,7 -2,1 -35,-4zm3820 -26c-20,-8 -14,1 -9,-22 13,14 14,-21 9,22zm-1373 1c-11,0 -5,1 -11,-5l24 4c-9,3 5,1 -13,1zm72 -20c-27,4 -11,6 -17,-14l17 14zm173 -6l23 -15c-11,21 2,13 -23,15zm-152 30c21,-36 20,-26 53,-51 -7,28 -3,18 -23,33 -12,8 -16,11 -30,18zm-101 -44l-44 45c10,-33 18,-16 44,-45zm85 -7c1,-7 -6,-6 10,-2 6,1 -12,19 -10,2zm417 12c4,-37 -1,-18 22,-28 -11,22 -7,16 -22,28zm-293 -36c4,5 27,-10 3,21 -16,-16 -9,-6 -3,-21zm84 8l-6 15c-13,-5 -8,1 -23,-12l29 -3zm-57 10c-4,-28 0,-3 7,-5l3 0c8,17 -2,3 -3,4l-7 1zm-167 -17c-10,24 10,10 -19,16 8,-19 -2,-11 19,-16zm-111 15c0,7 -15,18 -10,1 2,-9 1,-3 8,-3 0,0 2,1 2,1 0,0 0,1 0,1zm1082 -22l3 15 -23 11 20 -26zm-172 8c-1,5 -2,16 -11,26 -11,12 -8,6 -18,9 1,-24 -1,-23 29,-35zm-299 2c-8,9 -14,5 -4,-4 13,-11 14,-8 4,4zm253 -3c5,-17 -1,-8 9,-20 4,7 8,-4 3,11 -4,13 2,3 -12,9zm-286 4c-24,-8 -6,-8 0,-19 5,9 8,5 0,19zm-28 -16c-11,13 -10,11 -20,24 -7,10 -4,7 -11,14l-11 8c12,-28 0,-10 21,-30 13,-12 5,-6 21,-16zm532 5l17 -11 -17 11zm-104 71c11,-32 20,-24 39,-47 24,-30 5,-33 47,-38 -15,27 -11,35 -36,50 -58,34 -11,22 -50,35zm-32 -19c45,-60 42,-69 77,-68 -13,30 -24,32 -43,55 -18,22 -21,37 -61,33l27 -20zm-36 -44c1,-1 2,-4 2,-5 0,-1 1,-4 2,-5l68 -17c-9,12 -4,6 -14,16 -23,25 -52,53 -59,87 28,9 27,-2 42,9 -4,64 -132,40 -174,39 14,-2 104,-30 114,-38 -16,-10 -8,0 -23,-11 16,-26 67,-57 75,-83 -5,-2 9,-21 -33,8zm-123 31c14,-41 6,-10 30,-34 26,-26 -7,-19 32,-28 -3,28 -5,16 -21,32 -27,27 1,17 -41,30zm-237 -44c12,-24 -2,-8 19,-16l-19 16zm-399 10c13,-12 1,-13 24,-16 -24,22 8,10 -24,16zm-185 -17c-15,-18 -26,21 3,-5l-3 5zm703 20c-7,-10 -10,-16 -14,-32l148 3c-16,37 -27,11 -27,11l-39 17c-10,-5 -22,-13 -36,-11 -25,5 10,4 -32,12zm-37 -24c0,1 -10,14 -5,1 1,-3 8,-18 5,-1zm-521 23c-10,-21 2,-7 -15,-18 -28,15 -17,13 -29,27 -8,9 -18,15 -25,21 17,-29 25,-33 23,-55l73 -3c-12,29 0,16 -27,28zm224 7c11,-21 12,-19 7,-47l40 3c-14,18 -18,36 -47,44zm-2 -47l-23 42c-13,-16 -2,4 -8,-19 -11,-38 11,17 -3,-12 -20,6 -2,-1 -19,10 -22,15 7,2 -21,13l-10 -21 84 -13zm-1219 -73l-16 22 16 -22zm-19 -47c-1,-32 4,-31 20,-51 7,14 10,-20 5,15 -3,22 3,-1 -18,25 -1,1 -7,11 -7,11zm8 -100c0,-22 6,-22 20,-33l-20 33zm22 -117c-6,10 -9,14 -13,20 3,-25 -7,-8 13,-20zm-18 -15c0,-16 -4,-9 3,-28 8,-25 11,-14 13,-15 9,21 -3,33 -16,43zm-9 -86c4,-31 -1,-16 20,-26 -6,19 -5,16 -20,26zm18 -441l-16 23c5,-15 0,-4 8,-16 0,-1 3,-1 4,-4 0,-2 2,-2 4,-3z"/>
 </g>
</svg>
